%TF.GenerationSoftware,KiCad,Pcbnew,8.0.0-rc1-4-g5bc78f7d9f*%
%TF.CreationDate,2024-02-16T20:23:17-05:00*%
%TF.ProjectId,cafeFlex,63616665-466c-4657-982e-6b696361645f,3*%
%TF.SameCoordinates,Original*%
%TF.FileFunction,Copper,L2,Bot*%
%TF.FilePolarity,Positive*%
%FSLAX46Y46*%
G04 Gerber Fmt 4.6, Leading zero omitted, Abs format (unit mm)*
G04 Created by KiCad (PCBNEW 8.0.0-rc1-4-g5bc78f7d9f) date 2024-02-16 20:23:17*
%MOMM*%
%LPD*%
G01*
G04 APERTURE LIST*
%TA.AperFunction,ViaPad*%
%ADD10C,1.500000*%
%TD*%
%TA.AperFunction,ViaPad*%
%ADD11C,0.500000*%
%TD*%
%TA.AperFunction,ViaPad*%
%ADD12C,0.350000*%
%TD*%
%TA.AperFunction,Conductor*%
%ADD13C,0.500000*%
%TD*%
%TA.AperFunction,Conductor*%
%ADD14C,0.152400*%
%TD*%
%TA.AperFunction,Conductor*%
%ADD15C,0.600000*%
%TD*%
%TA.AperFunction,Conductor*%
%ADD16C,0.088900*%
%TD*%
%TA.AperFunction,Profile*%
%ADD17C,0.010000*%
%TD*%
G04 APERTURE END LIST*
D10*
X216483292Y-78281754D03*
X219404986Y-71157675D03*
X219412894Y-78291054D03*
X216499550Y-71139183D03*
D11*
X214229458Y-71759587D03*
D12*
X215199458Y-72729587D03*
D11*
X217421649Y-72729587D03*
X187309908Y-69419999D03*
D12*
X189601649Y-91221740D03*
D11*
X191631649Y-63001740D03*
X189034370Y-65844461D03*
D12*
X215201649Y-73980000D03*
X202395603Y-64728097D03*
X189672725Y-75231285D03*
X207601513Y-73677220D03*
X183165873Y-85821778D03*
X198481373Y-67227912D03*
X183146125Y-88112582D03*
X205915671Y-58047132D03*
X206249458Y-59379587D03*
X211841467Y-76505591D03*
X217690356Y-74491331D03*
X207248140Y-75870802D03*
X199251649Y-77141740D03*
X198899550Y-70139183D03*
X194097226Y-71070896D03*
X185210588Y-95511229D03*
X188604108Y-68444387D03*
X187029458Y-79129587D03*
X212634992Y-75372584D03*
X193659550Y-67379183D03*
X198419458Y-57059587D03*
X211659458Y-70409587D03*
X206539458Y-62839587D03*
X189399550Y-58539183D03*
X189689458Y-63899587D03*
X207107375Y-71149902D03*
X208599550Y-73739183D03*
X211321109Y-78586848D03*
X206359458Y-60699587D03*
X187509458Y-76439587D03*
X199249022Y-71849298D03*
X193839550Y-68429183D03*
X204425630Y-67549613D03*
X191032215Y-94342768D03*
X186802932Y-66571226D03*
X196393635Y-89930359D03*
X183205370Y-93049658D03*
X199439550Y-70939183D03*
X190317481Y-62714240D03*
X213089458Y-71799587D03*
X195039267Y-57181093D03*
D10*
X207150609Y-67586388D03*
D12*
X190689458Y-87999587D03*
X216089458Y-73489587D03*
X194893866Y-71774903D03*
X214967485Y-70678600D03*
X207839797Y-74618133D03*
X196589458Y-57059587D03*
X194358314Y-58417829D03*
X185431649Y-70561740D03*
X204699550Y-64639183D03*
X194961649Y-88971740D03*
X195949550Y-64679183D03*
X183146125Y-73755563D03*
X209399550Y-74187455D03*
D10*
X189231852Y-95879163D03*
D12*
X190459458Y-68709587D03*
X189799550Y-57839183D03*
X214851539Y-74467526D03*
X196247316Y-83900707D03*
X206399550Y-61439183D03*
X187564336Y-67097491D03*
X186389458Y-68989587D03*
X183165873Y-83136009D03*
X201799550Y-57139183D03*
X195399550Y-65929183D03*
X205999550Y-64639183D03*
X193619550Y-64689183D03*
X191399550Y-57639183D03*
X214910773Y-76578408D03*
X200071649Y-59131740D03*
X193679550Y-65789183D03*
X198411379Y-74552937D03*
X194759550Y-66839183D03*
X195329550Y-63329183D03*
X192209550Y-67199183D03*
X213707620Y-78830856D03*
X198699550Y-69209183D03*
X190961649Y-85771740D03*
X206300181Y-71418967D03*
X213149458Y-78129587D03*
X194541649Y-75821740D03*
X184969458Y-68279587D03*
X189704423Y-81620873D03*
X200899550Y-57039183D03*
X205569221Y-71688032D03*
X217671093Y-76914073D03*
X189747101Y-67760578D03*
X189939794Y-60932549D03*
D10*
X188693417Y-62163701D03*
D12*
X186007936Y-66257707D03*
X205098661Y-67128968D03*
X216091649Y-74481740D03*
X193648327Y-94063578D03*
X205599550Y-62839183D03*
X197309340Y-71833983D03*
X206099550Y-63139183D03*
X206399550Y-62139183D03*
X217684405Y-73479593D03*
X206699550Y-64039183D03*
X197606639Y-70495644D03*
X193761329Y-59224865D03*
X188515471Y-60632608D03*
X191699550Y-68329183D03*
X204899550Y-62839183D03*
X219922131Y-73473642D03*
X206199550Y-58639183D03*
X199899550Y-70139183D03*
X204483189Y-58215659D03*
X208729959Y-70974304D03*
X199899550Y-57039183D03*
X186961649Y-80971740D03*
X210099458Y-72319587D03*
X194961649Y-90571740D03*
X202257669Y-68023587D03*
X184561649Y-77771740D03*
X203601649Y-60101740D03*
X189747101Y-69570695D03*
X214859822Y-75497130D03*
X205299550Y-64839183D03*
X217673597Y-75504259D03*
X190718409Y-59144618D03*
X184636650Y-71722255D03*
X184561649Y-84971740D03*
X192211016Y-94456512D03*
X197097571Y-58781056D03*
X214851539Y-73473642D03*
X200899550Y-70139183D03*
X194161649Y-82571740D03*
X203959550Y-72059783D03*
X215302595Y-78854661D03*
X200399550Y-70539183D03*
X217915259Y-78075028D03*
X204811356Y-71876377D03*
X204499550Y-63339183D03*
X212529243Y-78824904D03*
X184391649Y-70051740D03*
X206005302Y-70775256D03*
X192561649Y-84171740D03*
X184609458Y-75669587D03*
X189909458Y-70549587D03*
X219928082Y-74491331D03*
X204352018Y-68327805D03*
X188218937Y-71937667D03*
X201399550Y-70539183D03*
X192616771Y-71254694D03*
X194961649Y-86571740D03*
X198511649Y-62911740D03*
X191729550Y-60539183D03*
X203151649Y-63111740D03*
X186961649Y-85771740D03*
X191459550Y-61179183D03*
X197180508Y-65964937D03*
X196661657Y-76112404D03*
X191551649Y-79351740D03*
X183165873Y-80785960D03*
X183067131Y-90600869D03*
X207359458Y-68869587D03*
X200350576Y-67973068D03*
X190399550Y-57539183D03*
X203799550Y-58239183D03*
X188981508Y-59622861D03*
X191709550Y-64139183D03*
X196413187Y-87329968D03*
X191524437Y-57057119D03*
X191469550Y-65469183D03*
X183722354Y-71252051D03*
D10*
X207009134Y-65633781D03*
D12*
X201254599Y-76197775D03*
X201999550Y-57739183D03*
X190124865Y-66454145D03*
X190689458Y-90539587D03*
X203581649Y-65561740D03*
X217952257Y-70660118D03*
X204559458Y-74399587D03*
X199149458Y-57059587D03*
X188620015Y-69764686D03*
X206309458Y-60099587D03*
X184561649Y-80171740D03*
X190840281Y-57139471D03*
X189501649Y-77661740D03*
X206097691Y-68380385D03*
X186961649Y-83371740D03*
X200351649Y-65951740D03*
X203099550Y-58239183D03*
X195761649Y-80971740D03*
X196393635Y-92081057D03*
X205908402Y-67297226D03*
X191731649Y-76201740D03*
X201899550Y-70139183D03*
X190855084Y-70054705D03*
X187539458Y-62559587D03*
X197361649Y-79281740D03*
X195299550Y-57639183D03*
X183165873Y-77507742D03*
X205210920Y-58185018D03*
X191729550Y-61849183D03*
X196491649Y-60671740D03*
X188261649Y-70671740D03*
X193959550Y-61499183D03*
X184561649Y-89771740D03*
X208399550Y-72439183D03*
X209304363Y-76332856D03*
X202430220Y-58162037D03*
X204499550Y-64039183D03*
X206099550Y-63839183D03*
X184561649Y-82571740D03*
X184561649Y-87371740D03*
X197609458Y-57049587D03*
X191068143Y-71645218D03*
X195840270Y-57154393D03*
X207869458Y-69479587D03*
X193629550Y-63549183D03*
D11*
X206161649Y-74571740D03*
X205361649Y-74571740D03*
D12*
X187089797Y-74468133D03*
D11*
X210161649Y-77771740D03*
X206961649Y-76971740D03*
X206161649Y-76171740D03*
X208561649Y-76971740D03*
D12*
X193089797Y-74468133D03*
X186589797Y-74468133D03*
D11*
X209361649Y-78571740D03*
D12*
X187589797Y-74468133D03*
D11*
X209361649Y-77771740D03*
X206161649Y-75371740D03*
X206961649Y-75371740D03*
X208561649Y-79371740D03*
D12*
X192089797Y-74468133D03*
D11*
X208561649Y-78571740D03*
X207761649Y-76971740D03*
D12*
X193589797Y-74468133D03*
D11*
X207761649Y-76171740D03*
X210161649Y-78571740D03*
D12*
X186089797Y-74468133D03*
D11*
X206161649Y-76971740D03*
D12*
X192589797Y-74468133D03*
D11*
X208561649Y-77771740D03*
X210161649Y-76971740D03*
X210161649Y-76171740D03*
D12*
X193631433Y-64098950D03*
X195499550Y-64108357D03*
D11*
X208561649Y-76171740D03*
X208561649Y-75371740D03*
X209361649Y-75371740D03*
X209361649Y-76971740D03*
X210961649Y-72171740D03*
X210161649Y-74571740D03*
X210161649Y-73771740D03*
X210057417Y-70909284D03*
X210161649Y-75371740D03*
X210800251Y-71508218D03*
D13*
X190223299Y-64410090D02*
X191631649Y-63001740D01*
D14*
X215201649Y-73980000D02*
X215199458Y-73977809D01*
X216971649Y-72739587D02*
X216981649Y-72729587D01*
D15*
X214229458Y-71759587D02*
X215199458Y-72729587D01*
D13*
X185261649Y-75081479D02*
X185261649Y-86467526D01*
X188081698Y-67591847D02*
X185576581Y-73525755D01*
D15*
X216981649Y-72729587D02*
X217419458Y-72729587D01*
D13*
X185554542Y-87174633D02*
X189601649Y-91221740D01*
D14*
X215199458Y-73977809D02*
X215199458Y-72729587D01*
D15*
X215199458Y-72729587D02*
X216981649Y-72729587D01*
D13*
X185261649Y-86467526D02*
G75*
G03*
X185554565Y-87174610I999951J26D01*
G01*
X188081698Y-67591847D02*
G75*
G02*
X190223303Y-64410094I9212702J-3889353D01*
G01*
X185261649Y-75081479D02*
G75*
G02*
X185576585Y-73525757I4000051J-21D01*
G01*
D16*
X207339797Y-72868133D02*
X192639797Y-72868133D01*
X210559100Y-73190333D02*
X207661997Y-73190333D01*
X207661997Y-73190333D02*
X207339797Y-72868133D01*
X210161649Y-77771740D02*
X210486190Y-77771740D01*
X210884197Y-77373733D02*
X210884197Y-73515429D01*
X187406369Y-74151561D02*
X187089797Y-74468133D01*
X210884197Y-73515429D02*
X210559100Y-73190333D01*
X191356369Y-74151561D02*
X187406369Y-74151561D01*
X192639797Y-72868133D02*
X191356369Y-74151561D01*
X210486190Y-77771740D02*
X210884197Y-77373733D01*
X193689797Y-73868133D02*
X206515666Y-73868133D01*
X208178299Y-76588390D02*
X208561649Y-76971740D01*
X208178299Y-75530766D02*
X208178299Y-76588390D01*
X193089797Y-74468133D02*
X193689797Y-73868133D01*
X206515666Y-73868133D02*
X208178299Y-75530766D01*
X191239797Y-73918133D02*
X187139797Y-73918133D01*
X211061997Y-77695933D02*
X211061996Y-73441781D01*
X211061996Y-73441781D02*
X210632747Y-73012533D01*
X210632747Y-73012533D02*
X207884197Y-73012533D01*
X207489797Y-72618133D02*
X192539797Y-72618133D01*
X192539797Y-72618133D02*
X191239797Y-73918133D01*
X207884197Y-73012533D02*
X207489797Y-72618133D01*
X210569540Y-78188390D02*
X211061997Y-77695933D01*
X209361649Y-78571740D02*
X209744999Y-78188390D01*
X187139797Y-73918133D02*
X186589797Y-74468133D01*
X209744999Y-78188390D02*
X210569540Y-78188390D01*
X192739797Y-73118133D02*
X191389797Y-74468133D01*
X210489797Y-77368133D02*
X210706397Y-77151533D01*
X209361649Y-77771740D02*
X209486190Y-77771740D01*
X207189797Y-73118133D02*
X192739797Y-73118133D01*
X210485453Y-73368133D02*
X207439797Y-73368133D01*
X207439797Y-73368133D02*
X207189797Y-73118133D01*
X191389797Y-74468133D02*
X187589797Y-74468133D01*
X209486190Y-77771740D02*
X209889797Y-77368133D01*
X210706397Y-73589077D02*
X210485453Y-73368133D01*
X210706397Y-77151533D02*
X210706397Y-73589077D01*
X209889797Y-77368133D02*
X210489797Y-77368133D01*
X209513808Y-77368133D02*
X209744999Y-77136942D01*
X208944999Y-78188390D02*
X208944999Y-77512931D01*
X208600181Y-74068133D02*
X207364797Y-74068133D01*
X208561649Y-78571740D02*
X208944999Y-78188390D01*
X208944999Y-77512931D02*
X209089797Y-77368133D01*
X193189797Y-73368133D02*
X192089797Y-74468133D01*
X209744999Y-75212951D02*
X208600181Y-74068133D01*
X206664797Y-73368133D02*
X193189797Y-73368133D01*
X209744999Y-77136942D02*
X209744999Y-75212951D01*
X209089797Y-77368133D02*
X209513808Y-77368133D01*
X207364797Y-74068133D02*
X206664797Y-73368133D01*
X207761649Y-76171740D02*
X207761649Y-75564644D01*
X206276592Y-74079587D02*
X193978343Y-74079587D01*
X207761649Y-75564644D02*
X206276592Y-74079587D01*
X193978343Y-74079587D02*
X193589797Y-74468133D01*
X210706394Y-72834733D02*
X208106397Y-72834733D01*
X211239795Y-73368133D02*
X210706394Y-72834733D01*
X207639797Y-72368133D02*
X192414073Y-72368133D01*
X210536190Y-78571740D02*
X211239797Y-77868133D01*
X208106397Y-72834733D02*
X207639797Y-72368133D01*
X210161649Y-78571740D02*
X210536190Y-78571740D01*
X191114073Y-73668133D02*
X186889797Y-73668133D01*
X211239797Y-77868133D02*
X211239795Y-73368133D01*
X192414073Y-72368133D02*
X191114073Y-73668133D01*
X186889797Y-73668133D02*
X186089797Y-74468133D01*
X208944999Y-77212931D02*
X208944999Y-74673335D01*
X206573477Y-73618133D02*
X193439797Y-73618133D01*
X208561649Y-77596281D02*
X208944999Y-77212931D01*
X208561649Y-77771740D02*
X208561649Y-77596281D01*
X208517597Y-74245933D02*
X207201277Y-74245933D01*
X208944999Y-74673335D02*
X208517597Y-74245933D01*
X193439797Y-73618133D02*
X192589797Y-74468133D01*
X207201277Y-74245933D02*
X206573477Y-73618133D01*
X195499550Y-64108357D02*
X193640840Y-64108357D01*
X193640840Y-64108357D02*
X193631433Y-64098950D01*
%TA.AperFunction,Conductor*%
G36*
X209150226Y-75637391D02*
G01*
X209177982Y-75660681D01*
X209189332Y-75670205D01*
X209301804Y-75711140D01*
X209421494Y-75711140D01*
X209533965Y-75670205D01*
X209533965Y-75670204D01*
X209533967Y-75670204D01*
X209539769Y-75665334D01*
X209571485Y-75655334D01*
X209600983Y-75670689D01*
X209611149Y-75698619D01*
X209611149Y-76644860D01*
X209598423Y-76675584D01*
X209567699Y-76688310D01*
X209539772Y-76678146D01*
X209533967Y-76673276D01*
X209533966Y-76673275D01*
X209421494Y-76632340D01*
X209301804Y-76632340D01*
X209189332Y-76673274D01*
X209171414Y-76688310D01*
X209156611Y-76700732D01*
X209150228Y-76706088D01*
X209118512Y-76716088D01*
X209089014Y-76700732D01*
X209078849Y-76672803D01*
X209078849Y-75670676D01*
X209091575Y-75639952D01*
X209122299Y-75627226D01*
X209150226Y-75637391D01*
G37*
%TD.AperFunction*%
%TA.AperFunction,Conductor*%
G36*
X208474881Y-74392509D02*
G01*
X208798423Y-74716051D01*
X208811149Y-74746775D01*
X208811149Y-75044860D01*
X208798423Y-75075584D01*
X208767699Y-75088310D01*
X208739772Y-75078146D01*
X208733967Y-75073276D01*
X208733966Y-75073275D01*
X208621494Y-75032340D01*
X208501804Y-75032340D01*
X208389332Y-75073274D01*
X208297643Y-75150212D01*
X208237796Y-75253870D01*
X208230240Y-75296722D01*
X208212372Y-75324769D01*
X208179905Y-75331967D01*
X208156726Y-75319901D01*
X207290782Y-74453957D01*
X207278056Y-74423233D01*
X207290782Y-74392509D01*
X207321506Y-74379783D01*
X208444157Y-74379783D01*
X208474881Y-74392509D01*
G37*
%TD.AperFunction*%
%TA.AperFunction,Conductor*%
G36*
X207147080Y-73264708D02*
G01*
X207363976Y-73481605D01*
X207370442Y-73484283D01*
X207413173Y-73501983D01*
X209850231Y-73501983D01*
X209880955Y-73514709D01*
X209893681Y-73545433D01*
X209887860Y-73567155D01*
X209843195Y-73644519D01*
X209837796Y-73653870D01*
X209817013Y-73771740D01*
X209837796Y-73889610D01*
X209837796Y-73889611D01*
X209837797Y-73889612D01*
X209897643Y-73993268D01*
X209967616Y-74051983D01*
X209989332Y-74070205D01*
X210101804Y-74111140D01*
X210221494Y-74111140D01*
X210333965Y-74070205D01*
X210333965Y-74070204D01*
X210333967Y-74070204D01*
X210425655Y-73993268D01*
X210485501Y-73889612D01*
X210486307Y-73885042D01*
X210504174Y-73856994D01*
X210536641Y-73849796D01*
X210564689Y-73867663D01*
X210572547Y-73892586D01*
X210572547Y-74450893D01*
X210559821Y-74481617D01*
X210529097Y-74494343D01*
X210498373Y-74481617D01*
X210486307Y-74458438D01*
X210486028Y-74456859D01*
X210485501Y-74453868D01*
X210425655Y-74350212D01*
X210339014Y-74277511D01*
X210333965Y-74273274D01*
X210221494Y-74232340D01*
X210101804Y-74232340D01*
X209989332Y-74273274D01*
X209897643Y-74350212D01*
X209837796Y-74453869D01*
X209817013Y-74571740D01*
X209837796Y-74689610D01*
X209837796Y-74689611D01*
X209837797Y-74689612D01*
X209897643Y-74793268D01*
X209954517Y-74840991D01*
X209989332Y-74870205D01*
X210101804Y-74911140D01*
X210221494Y-74911140D01*
X210333965Y-74870205D01*
X210333965Y-74870204D01*
X210333967Y-74870204D01*
X210425655Y-74793268D01*
X210485501Y-74689612D01*
X210486307Y-74685042D01*
X210504174Y-74656994D01*
X210536641Y-74649796D01*
X210564689Y-74667663D01*
X210572547Y-74692586D01*
X210572547Y-75250893D01*
X210559821Y-75281617D01*
X210529097Y-75294343D01*
X210498373Y-75281617D01*
X210486307Y-75258438D01*
X210485501Y-75253870D01*
X210485501Y-75253868D01*
X210425655Y-75150212D01*
X210344764Y-75082336D01*
X210333965Y-75073274D01*
X210221494Y-75032340D01*
X210101804Y-75032340D01*
X209989332Y-75073274D01*
X209938310Y-75116088D01*
X209915495Y-75135233D01*
X209913956Y-75136524D01*
X209882240Y-75146524D01*
X209855303Y-75133963D01*
X208676002Y-73954662D01*
X208676001Y-73954661D01*
X208626805Y-73934283D01*
X208626803Y-73934283D01*
X207438238Y-73934283D01*
X207407514Y-73921557D01*
X207130476Y-73644519D01*
X206812112Y-73326156D01*
X206799387Y-73295433D01*
X206812113Y-73264709D01*
X206842837Y-73251983D01*
X207116357Y-73251983D01*
X207147080Y-73264708D01*
G37*
%TD.AperFunction*%
%TA.AperFunction,Conductor*%
G36*
X205466216Y-56878361D02*
G01*
X205466217Y-56878362D01*
X205466282Y-56878362D01*
X205480075Y-56878382D01*
X205484059Y-56878574D01*
X205627373Y-56892117D01*
X205635276Y-56893612D01*
X205721350Y-56918342D01*
X205771675Y-56932801D01*
X205779174Y-56935732D01*
X205905990Y-56999407D01*
X205912819Y-57003670D01*
X206025719Y-57089654D01*
X206031644Y-57095105D01*
X206126733Y-57200433D01*
X206131551Y-57206883D01*
X206205582Y-57327957D01*
X206209128Y-57335185D01*
X206259549Y-57467832D01*
X206261700Y-57475590D01*
X206287174Y-57617442D01*
X206287701Y-57621433D01*
X206288919Y-57635729D01*
X206288919Y-57635733D01*
X207152418Y-67781865D01*
X207152510Y-67782360D01*
X207159615Y-67865573D01*
X207209590Y-68112439D01*
X207209596Y-68112462D01*
X207287531Y-68351958D01*
X207287536Y-68351969D01*
X207392409Y-68580964D01*
X207392416Y-68580977D01*
X207522837Y-68796432D01*
X207522842Y-68796439D01*
X207522845Y-68796444D01*
X207677114Y-68995551D01*
X207677117Y-68995554D01*
X207677120Y-68995557D01*
X207735648Y-69055467D01*
X207735741Y-69055583D01*
X207773802Y-69094514D01*
X207773802Y-69094515D01*
X207773803Y-69094515D01*
X207773804Y-69094516D01*
X207791610Y-69112731D01*
X207791611Y-69112731D01*
X207797652Y-69118911D01*
X207797708Y-69118968D01*
X208338678Y-69672325D01*
X208338679Y-69672326D01*
X208338678Y-69672326D01*
X208352670Y-69686638D01*
X208352688Y-69686682D01*
X208452374Y-69788689D01*
X208645996Y-69946190D01*
X208646000Y-69946193D01*
X208752110Y-70014066D01*
X208856249Y-70080679D01*
X209080417Y-70190421D01*
X209315598Y-70273994D01*
X209558749Y-70330316D01*
X209806723Y-70358660D01*
X209930728Y-70358633D01*
X209938371Y-70358633D01*
X209969410Y-70358633D01*
X209978049Y-70358633D01*
X209978051Y-70358631D01*
X210936435Y-70358610D01*
X210936436Y-70358611D01*
X210974329Y-70358610D01*
X210988164Y-70358610D01*
X211059220Y-70358624D01*
X211227284Y-70334530D01*
X211390229Y-70286833D01*
X211544757Y-70216498D01*
X211672003Y-70135025D01*
X211687740Y-70124950D01*
X211687740Y-70124949D01*
X211687743Y-70124948D01*
X211816291Y-70014037D01*
X211871356Y-69950788D01*
X211871357Y-69950789D01*
X211871359Y-69950783D01*
X211896651Y-69921746D01*
X211897224Y-69921102D01*
X211901498Y-69916401D01*
X211901930Y-69915683D01*
X212221600Y-69548657D01*
X212225971Y-69544307D01*
X212285434Y-69493008D01*
X212295812Y-69486362D01*
X212364438Y-69455125D01*
X212376259Y-69451664D01*
X212439373Y-69442610D01*
X212453900Y-69440527D01*
X212460069Y-69440087D01*
X213863992Y-69440087D01*
X213863994Y-69440088D01*
X213898787Y-69440087D01*
X213904950Y-69440526D01*
X213982675Y-69451664D01*
X213994502Y-69455125D01*
X214063116Y-69486352D01*
X214073498Y-69492999D01*
X214132841Y-69544196D01*
X214137223Y-69548558D01*
X214460176Y-69919368D01*
X214460185Y-69919380D01*
X214461985Y-69921447D01*
X214461986Y-69921448D01*
X214474853Y-69936221D01*
X214474869Y-69936269D01*
X214542596Y-70014060D01*
X214542608Y-70014072D01*
X214671153Y-70124976D01*
X214671157Y-70124978D01*
X214671160Y-70124981D01*
X214814155Y-70216533D01*
X214968694Y-70286868D01*
X215131649Y-70334562D01*
X215299723Y-70358652D01*
X215384619Y-70358633D01*
X216012087Y-70358633D01*
X216042811Y-70371359D01*
X216055537Y-70402083D01*
X216042811Y-70432807D01*
X216037626Y-70437235D01*
X215934787Y-70511951D01*
X215816720Y-70643078D01*
X215728494Y-70795891D01*
X215728494Y-70795892D01*
X215673970Y-70963699D01*
X215655526Y-71139183D01*
X215673970Y-71314666D01*
X215728494Y-71482473D01*
X215728494Y-71482474D01*
X215728495Y-71482476D01*
X215728496Y-71482478D01*
X215816720Y-71635288D01*
X215934788Y-71766415D01*
X216077538Y-71870129D01*
X216077541Y-71870130D01*
X216077542Y-71870131D01*
X216238725Y-71941895D01*
X216238732Y-71941898D01*
X216411325Y-71978583D01*
X216411328Y-71978583D01*
X216587772Y-71978583D01*
X216587775Y-71978583D01*
X216760368Y-71941898D01*
X216921562Y-71870129D01*
X217064312Y-71766415D01*
X217182380Y-71635288D01*
X217270604Y-71482478D01*
X217325130Y-71314665D01*
X217343574Y-71139183D01*
X217325130Y-70963701D01*
X217270604Y-70795888D01*
X217182380Y-70643078D01*
X217064312Y-70511951D01*
X216961473Y-70437234D01*
X216944098Y-70408880D01*
X216951861Y-70376544D01*
X216980216Y-70359168D01*
X216987013Y-70358633D01*
X218942975Y-70358633D01*
X218973699Y-70371359D01*
X218986425Y-70402083D01*
X218973699Y-70432807D01*
X218968514Y-70437235D01*
X218840223Y-70530443D01*
X218722156Y-70661570D01*
X218633930Y-70814383D01*
X218633930Y-70814384D01*
X218579406Y-70982191D01*
X218560962Y-71157675D01*
X218579406Y-71333158D01*
X218633930Y-71500965D01*
X218633930Y-71500966D01*
X218633931Y-71500968D01*
X218633932Y-71500970D01*
X218722156Y-71653780D01*
X218840224Y-71784907D01*
X218982974Y-71888621D01*
X218982977Y-71888622D01*
X218982978Y-71888623D01*
X219121306Y-71950211D01*
X219144168Y-71960390D01*
X219316761Y-71997075D01*
X219316764Y-71997075D01*
X219493208Y-71997075D01*
X219493211Y-71997075D01*
X219665804Y-71960390D01*
X219826998Y-71888621D01*
X219969748Y-71784907D01*
X220087816Y-71653780D01*
X220126428Y-71586901D01*
X220152810Y-71566658D01*
X220185781Y-71570998D01*
X220206025Y-71597381D01*
X220207506Y-71608674D01*
X220200854Y-77814930D01*
X220188095Y-77845640D01*
X220157357Y-77858333D01*
X220126647Y-77845574D01*
X220119777Y-77836611D01*
X220095724Y-77794949D01*
X219977656Y-77663822D01*
X219834906Y-77560108D01*
X219834904Y-77560107D01*
X219834901Y-77560105D01*
X219673718Y-77488341D01*
X219673715Y-77488340D01*
X219673712Y-77488339D01*
X219501119Y-77451654D01*
X219324669Y-77451654D01*
X219152076Y-77488339D01*
X219152073Y-77488339D01*
X219152069Y-77488341D01*
X218990886Y-77560105D01*
X218990880Y-77560109D01*
X218848131Y-77663822D01*
X218730064Y-77794949D01*
X218641838Y-77947762D01*
X218641838Y-77947763D01*
X218587314Y-78115570D01*
X218568870Y-78291054D01*
X218587314Y-78466537D01*
X218641838Y-78634344D01*
X218641838Y-78634345D01*
X218641839Y-78634347D01*
X218641840Y-78634349D01*
X218730064Y-78787159D01*
X218848132Y-78918286D01*
X218959345Y-78999087D01*
X218976720Y-79027440D01*
X218968957Y-79059776D01*
X218940602Y-79077152D01*
X218933807Y-79077687D01*
X216949478Y-79077763D01*
X216918753Y-79065038D01*
X216906026Y-79034315D01*
X216918751Y-79003590D01*
X216923926Y-78999169D01*
X217048054Y-78908986D01*
X217166122Y-78777859D01*
X217254346Y-78625049D01*
X217308872Y-78457236D01*
X217327316Y-78281754D01*
X217308872Y-78106272D01*
X217254346Y-77938459D01*
X217166122Y-77785649D01*
X217048054Y-77654522D01*
X216905304Y-77550808D01*
X216905302Y-77550807D01*
X216905299Y-77550805D01*
X216744116Y-77479041D01*
X216744113Y-77479040D01*
X216744110Y-77479039D01*
X216571517Y-77442354D01*
X216395067Y-77442354D01*
X216222474Y-77479039D01*
X216222471Y-77479039D01*
X216222467Y-77479041D01*
X216061284Y-77550805D01*
X216061278Y-77550809D01*
X215918529Y-77654522D01*
X215800462Y-77785649D01*
X215712236Y-77938462D01*
X215712236Y-77938463D01*
X215657712Y-78106270D01*
X215639268Y-78281754D01*
X215657712Y-78457237D01*
X215712236Y-78625044D01*
X215712236Y-78625045D01*
X215712237Y-78625047D01*
X215712238Y-78625049D01*
X215800462Y-78777859D01*
X215918530Y-78908986D01*
X216040387Y-78997520D01*
X216042695Y-78999197D01*
X216060071Y-79027552D01*
X216052308Y-79059888D01*
X216023953Y-79077264D01*
X216017158Y-79077799D01*
X209456911Y-79078047D01*
X209456887Y-79078047D01*
X209439343Y-79078038D01*
X209439037Y-79078048D01*
X209434697Y-79078049D01*
X209431424Y-79078699D01*
X209426167Y-79080146D01*
X209377325Y-79087276D01*
X209377323Y-79087276D01*
X209329959Y-79101402D01*
X209324663Y-79102290D01*
X209321370Y-79103092D01*
X209317600Y-79104843D01*
X209317229Y-79105000D01*
X209288492Y-79118367D01*
X209287056Y-79119035D01*
X209287030Y-79119047D01*
X209249882Y-79136300D01*
X209249844Y-79136321D01*
X208961120Y-79270459D01*
X208957996Y-79271764D01*
X208940919Y-79278127D01*
X208907686Y-79276929D01*
X208888630Y-79256449D01*
X208887401Y-79257160D01*
X208885501Y-79253869D01*
X208885501Y-79253868D01*
X208825655Y-79150212D01*
X208750653Y-79087277D01*
X208733965Y-79073274D01*
X208621494Y-79032340D01*
X208501804Y-79032340D01*
X208389332Y-79073274D01*
X208297643Y-79150212D01*
X208253070Y-79227414D01*
X208226686Y-79247659D01*
X208193716Y-79243318D01*
X208173883Y-79218369D01*
X208153651Y-79152056D01*
X208152445Y-79147058D01*
X208136423Y-79057816D01*
X208135818Y-79052729D01*
X208130372Y-78960804D01*
X208130297Y-78958235D01*
X208130300Y-78921748D01*
X208130298Y-78921744D01*
X208130299Y-78917860D01*
X208130297Y-78917826D01*
X208130297Y-78576584D01*
X208132031Y-78572396D01*
X208130297Y-78566895D01*
X208130297Y-78126123D01*
X208130269Y-78125839D01*
X208130269Y-78124116D01*
X208130271Y-78100137D01*
X208103743Y-77966733D01*
X208073596Y-77893941D01*
X208051702Y-77841077D01*
X208051697Y-77841067D01*
X207976136Y-77727971D01*
X207879961Y-77631790D01*
X207766869Y-77556221D01*
X207641207Y-77504169D01*
X207641205Y-77504168D01*
X207641204Y-77504168D01*
X207641198Y-77504167D01*
X207507806Y-77477633D01*
X207507804Y-77477633D01*
X207477690Y-77477633D01*
X206188398Y-77477633D01*
X206187276Y-77477619D01*
X205940565Y-77471244D01*
X205938323Y-77471128D01*
X205692843Y-77452067D01*
X205690610Y-77451835D01*
X205445960Y-77420057D01*
X205444849Y-77419898D01*
X204396487Y-77256093D01*
X204396486Y-77256092D01*
X204380745Y-77253633D01*
X204380733Y-77253630D01*
X204341049Y-77247430D01*
X204340950Y-77247424D01*
X204326493Y-77245167D01*
X204326482Y-77245165D01*
X204213892Y-77233488D01*
X204100826Y-77227638D01*
X204100861Y-77227638D01*
X204086710Y-77227637D01*
X204086668Y-77227633D01*
X204082135Y-77227633D01*
X204044246Y-77227633D01*
X204006353Y-77227632D01*
X204006352Y-77227632D01*
X204001299Y-77227632D01*
X204001291Y-77227633D01*
X203492093Y-77227633D01*
X203492051Y-77227615D01*
X203351884Y-77227579D01*
X203351575Y-77227579D01*
X203351574Y-77227579D01*
X203351569Y-77227579D01*
X203351567Y-77227579D01*
X203108114Y-77254887D01*
X202869211Y-77309173D01*
X202637865Y-77389754D01*
X202637858Y-77389757D01*
X202416924Y-77495639D01*
X202416920Y-77495641D01*
X202209180Y-77625491D01*
X202017206Y-77777702D01*
X202017199Y-77777709D01*
X201931617Y-77862771D01*
X201931608Y-77862780D01*
X197308813Y-82454777D01*
X197308754Y-82454800D01*
X197208430Y-82554509D01*
X197208424Y-82554515D01*
X197208420Y-82554519D01*
X197208419Y-82554521D01*
X197053824Y-82747245D01*
X197053821Y-82747248D01*
X196921871Y-82956143D01*
X196814250Y-83178538D01*
X196814246Y-83178548D01*
X196732311Y-83411643D01*
X196732310Y-83411646D01*
X196677103Y-83652479D01*
X196649324Y-83897994D01*
X196649324Y-83897998D01*
X196649305Y-83979631D01*
X196649297Y-83979729D01*
X196649297Y-92216542D01*
X196649210Y-92219297D01*
X196634929Y-92444089D01*
X196634232Y-92449552D01*
X196591893Y-92669369D01*
X196590510Y-92674701D01*
X196520702Y-92887394D01*
X196518656Y-92892507D01*
X196422504Y-93094655D01*
X196419828Y-93099469D01*
X196298872Y-93287835D01*
X196295608Y-93292272D01*
X196151797Y-93463819D01*
X196147999Y-93467807D01*
X195983633Y-93619791D01*
X195979360Y-93623266D01*
X195797098Y-93753228D01*
X195792420Y-93756135D01*
X195595176Y-93861998D01*
X195590167Y-93864290D01*
X195379379Y-93945014D01*
X195376777Y-93945917D01*
X188760856Y-96009293D01*
X188759279Y-96009753D01*
X188410961Y-96104103D01*
X188407762Y-96104841D01*
X188054036Y-96172484D01*
X188050790Y-96172978D01*
X187692978Y-96213717D01*
X187689704Y-96213965D01*
X187655767Y-96215248D01*
X187328977Y-96227602D01*
X187327345Y-96227633D01*
X185600477Y-96227633D01*
X185600446Y-96227630D01*
X185596051Y-96227630D01*
X185588707Y-96227630D01*
X185560066Y-96227632D01*
X185556265Y-96227466D01*
X185420848Y-96215581D01*
X185413361Y-96214256D01*
X185283938Y-96179443D01*
X185276796Y-96176832D01*
X185155433Y-96119993D01*
X185148855Y-96116178D01*
X185039251Y-96039047D01*
X185033440Y-96034144D01*
X184937876Y-95937996D01*
X184935314Y-95935182D01*
X184068219Y-94894668D01*
X183200507Y-93853413D01*
X183198956Y-93851439D01*
X183076673Y-93686114D01*
X183073922Y-93681905D01*
X182972187Y-93504653D01*
X182969950Y-93500174D01*
X182889367Y-93312336D01*
X182887663Y-93307625D01*
X182829326Y-93111746D01*
X182828177Y-93106875D01*
X182792862Y-92905565D01*
X182792282Y-92900578D01*
X182791814Y-92892507D01*
X182780370Y-92694930D01*
X182780297Y-92692416D01*
X182780298Y-92656147D01*
X182780297Y-92656144D01*
X182780297Y-86449582D01*
X184922216Y-86449582D01*
X184922217Y-86555326D01*
X184922218Y-86555327D01*
X184945142Y-86729405D01*
X184945142Y-86729406D01*
X184990588Y-86898991D01*
X184990593Y-86899004D01*
X185057787Y-87061211D01*
X185145586Y-87213267D01*
X185145589Y-87213272D01*
X185252481Y-87352563D01*
X185252484Y-87352566D01*
X185314561Y-87414636D01*
X185314562Y-87414638D01*
X185314563Y-87414638D01*
X189393253Y-91493328D01*
X189470646Y-91538011D01*
X189556959Y-91561140D01*
X189556966Y-91561141D01*
X189646332Y-91561141D01*
X189646338Y-91561140D01*
X189706240Y-91545088D01*
X189732653Y-91538011D01*
X189810046Y-91493328D01*
X189873237Y-91430137D01*
X189917920Y-91352744D01*
X189924997Y-91326331D01*
X189941049Y-91266429D01*
X189941050Y-91266422D01*
X189941050Y-91177057D01*
X189941049Y-91177050D01*
X189917920Y-91090737D01*
X189917919Y-91090736D01*
X189873236Y-91013343D01*
X185835022Y-86975129D01*
X185834995Y-86975097D01*
X185796028Y-86936135D01*
X185793164Y-86932975D01*
X185765280Y-86899002D01*
X185715077Y-86837835D01*
X185710344Y-86830753D01*
X185653327Y-86724092D01*
X185650067Y-86716223D01*
X185614953Y-86600484D01*
X185613293Y-86592136D01*
X185601258Y-86469972D01*
X185601049Y-86465712D01*
X185601049Y-76971740D01*
X205817013Y-76971740D01*
X205837796Y-77089610D01*
X205837796Y-77089611D01*
X205837797Y-77089612D01*
X205897643Y-77193268D01*
X205971077Y-77254887D01*
X205989332Y-77270205D01*
X206101804Y-77311140D01*
X206221494Y-77311140D01*
X206333965Y-77270205D01*
X206333965Y-77270204D01*
X206333967Y-77270204D01*
X206425655Y-77193268D01*
X206485501Y-77089612D01*
X206506285Y-76971740D01*
X206617013Y-76971740D01*
X206637796Y-77089610D01*
X206637796Y-77089611D01*
X206637797Y-77089612D01*
X206697643Y-77193268D01*
X206771077Y-77254887D01*
X206789332Y-77270205D01*
X206901804Y-77311140D01*
X207021494Y-77311140D01*
X207133965Y-77270205D01*
X207133965Y-77270204D01*
X207133967Y-77270204D01*
X207225655Y-77193268D01*
X207285501Y-77089612D01*
X207306285Y-76971740D01*
X207417013Y-76971740D01*
X207437796Y-77089610D01*
X207437796Y-77089611D01*
X207437797Y-77089612D01*
X207497643Y-77193268D01*
X207571077Y-77254887D01*
X207589332Y-77270205D01*
X207701804Y-77311140D01*
X207821494Y-77311140D01*
X207933965Y-77270205D01*
X207933965Y-77270204D01*
X207933967Y-77270204D01*
X208025655Y-77193268D01*
X208085501Y-77089612D01*
X208106285Y-76971740D01*
X208085501Y-76853868D01*
X208025655Y-76750212D01*
X207936718Y-76675584D01*
X207933965Y-76673274D01*
X207821494Y-76632340D01*
X207701804Y-76632340D01*
X207589332Y-76673274D01*
X207497643Y-76750212D01*
X207437796Y-76853869D01*
X207417013Y-76971740D01*
X207306285Y-76971740D01*
X207285501Y-76853868D01*
X207225655Y-76750212D01*
X207136718Y-76675584D01*
X207133965Y-76673274D01*
X207021494Y-76632340D01*
X206901804Y-76632340D01*
X206789332Y-76673274D01*
X206697643Y-76750212D01*
X206637796Y-76853869D01*
X206617013Y-76971740D01*
X206506285Y-76971740D01*
X206485501Y-76853868D01*
X206425655Y-76750212D01*
X206336718Y-76675584D01*
X206333965Y-76673274D01*
X206221494Y-76632340D01*
X206101804Y-76632340D01*
X205989332Y-76673274D01*
X205897643Y-76750212D01*
X205837796Y-76853869D01*
X205817013Y-76971740D01*
X185601049Y-76971740D01*
X185601049Y-76171740D01*
X205817013Y-76171740D01*
X205837796Y-76289610D01*
X205837796Y-76289611D01*
X205837797Y-76289612D01*
X205897643Y-76393268D01*
X205956608Y-76442746D01*
X205989332Y-76470205D01*
X206101804Y-76511140D01*
X206221494Y-76511140D01*
X206333965Y-76470205D01*
X206333965Y-76470204D01*
X206333967Y-76470204D01*
X206425655Y-76393268D01*
X206485501Y-76289612D01*
X206506285Y-76171740D01*
X206485501Y-76053868D01*
X206425655Y-75950212D01*
X206333967Y-75873276D01*
X206333965Y-75873274D01*
X206221494Y-75832340D01*
X206101804Y-75832340D01*
X205989332Y-75873274D01*
X205897643Y-75950212D01*
X205837796Y-76053869D01*
X205817013Y-76171740D01*
X185601049Y-76171740D01*
X185601049Y-75371740D01*
X205817013Y-75371740D01*
X205837796Y-75489610D01*
X205837796Y-75489611D01*
X205837797Y-75489612D01*
X205897643Y-75593268D01*
X205968347Y-75652596D01*
X205989332Y-75670205D01*
X206101804Y-75711140D01*
X206221494Y-75711140D01*
X206333965Y-75670205D01*
X206333965Y-75670204D01*
X206333967Y-75670204D01*
X206425655Y-75593268D01*
X206485501Y-75489612D01*
X206506285Y-75371740D01*
X206485501Y-75253868D01*
X206425655Y-75150212D01*
X206344764Y-75082336D01*
X206333965Y-75073274D01*
X206221494Y-75032340D01*
X206101804Y-75032340D01*
X205989332Y-75073274D01*
X205897643Y-75150212D01*
X205837796Y-75253869D01*
X205817013Y-75371740D01*
X185601049Y-75371740D01*
X185601049Y-75082336D01*
X185601084Y-75080601D01*
X185602836Y-75036765D01*
X185612658Y-74791051D01*
X185612932Y-74787622D01*
X185647477Y-74500763D01*
X185648028Y-74497344D01*
X185648636Y-74494343D01*
X185653942Y-74468133D01*
X185820217Y-74468133D01*
X185840738Y-74571297D01*
X185864966Y-74607557D01*
X185888183Y-74642305D01*
X185899175Y-74658755D01*
X185986633Y-74717192D01*
X186089796Y-74737713D01*
X186089797Y-74737713D01*
X186089798Y-74737713D01*
X186141379Y-74727452D01*
X186192961Y-74717192D01*
X186280419Y-74658755D01*
X186303669Y-74623957D01*
X186331320Y-74605482D01*
X186363936Y-74611969D01*
X186375923Y-74623956D01*
X186399175Y-74658755D01*
X186486633Y-74717192D01*
X186589796Y-74737713D01*
X186589797Y-74737713D01*
X186589798Y-74737713D01*
X186641379Y-74727452D01*
X186692961Y-74717192D01*
X186780419Y-74658755D01*
X186803669Y-74623957D01*
X186831320Y-74605482D01*
X186863936Y-74611969D01*
X186875923Y-74623956D01*
X186899175Y-74658755D01*
X186986633Y-74717192D01*
X187089796Y-74737713D01*
X187089797Y-74737713D01*
X187089798Y-74737713D01*
X187141379Y-74727452D01*
X187192961Y-74717192D01*
X187280419Y-74658755D01*
X187303669Y-74623957D01*
X187331320Y-74605482D01*
X187363936Y-74611969D01*
X187375923Y-74623956D01*
X187399175Y-74658755D01*
X187486633Y-74717192D01*
X187589796Y-74737713D01*
X187589797Y-74737713D01*
X187589798Y-74737713D01*
X187634720Y-74728777D01*
X187692961Y-74717192D01*
X187696964Y-74714517D01*
X187708347Y-74709308D01*
X187708347Y-74709307D01*
X187708376Y-74709295D01*
X187709548Y-74708759D01*
X187710333Y-74708543D01*
X187767567Y-74679788D01*
X187772773Y-74676965D01*
X187774034Y-74676229D01*
X187779003Y-74673117D01*
X187824595Y-74642560D01*
X187825383Y-74642046D01*
X187852167Y-74625032D01*
X187860969Y-74620748D01*
X187880128Y-74613970D01*
X187890807Y-74611652D01*
X187937389Y-74607558D01*
X187948977Y-74604448D01*
X187952637Y-74603467D01*
X187963896Y-74601983D01*
X191416419Y-74601983D01*
X191416421Y-74601983D01*
X191465617Y-74581605D01*
X192782513Y-73264709D01*
X192813237Y-73251983D01*
X193011757Y-73251983D01*
X193042481Y-73264709D01*
X193055207Y-73295433D01*
X193042481Y-73326157D01*
X192258835Y-74109801D01*
X192248995Y-74117179D01*
X192236996Y-74123755D01*
X192201157Y-74153800D01*
X192191962Y-74159713D01*
X192173631Y-74168464D01*
X192164374Y-74171660D01*
X192133508Y-74178547D01*
X192132462Y-74178767D01*
X192078623Y-74189396D01*
X192072851Y-74190725D01*
X192071486Y-74191085D01*
X192065861Y-74192754D01*
X192018941Y-74208296D01*
X192005002Y-74212914D01*
X192003595Y-74213407D01*
X192001880Y-74214008D01*
X192001207Y-74214257D01*
X191999940Y-74214887D01*
X191989102Y-74218582D01*
X191986635Y-74219072D01*
X191986628Y-74219075D01*
X191899178Y-74277507D01*
X191899174Y-74277511D01*
X191840738Y-74364969D01*
X191840737Y-74364969D01*
X191823054Y-74453869D01*
X191820217Y-74468133D01*
X191840738Y-74571297D01*
X191864966Y-74607557D01*
X191888183Y-74642305D01*
X191899175Y-74658755D01*
X191986633Y-74717192D01*
X192089796Y-74737713D01*
X192089797Y-74737713D01*
X192089798Y-74737713D01*
X192141379Y-74727452D01*
X192192961Y-74717192D01*
X192280419Y-74658755D01*
X192303669Y-74623957D01*
X192331320Y-74605482D01*
X192363936Y-74611969D01*
X192375923Y-74623956D01*
X192399175Y-74658755D01*
X192486633Y-74717192D01*
X192589796Y-74737713D01*
X192589797Y-74737713D01*
X192589798Y-74737713D01*
X192641379Y-74727452D01*
X192692961Y-74717192D01*
X192780419Y-74658755D01*
X192803669Y-74623957D01*
X192831320Y-74605482D01*
X192863936Y-74611969D01*
X192875923Y-74623956D01*
X192899175Y-74658755D01*
X192986633Y-74717192D01*
X193089796Y-74737713D01*
X193089797Y-74737713D01*
X193089798Y-74737713D01*
X193141379Y-74727452D01*
X193192961Y-74717192D01*
X193280419Y-74658755D01*
X193303669Y-74623957D01*
X193331320Y-74605482D01*
X193363936Y-74611969D01*
X193375923Y-74623956D01*
X193399175Y-74658755D01*
X193486633Y-74717192D01*
X193589796Y-74737713D01*
X193589797Y-74737713D01*
X193589798Y-74737713D01*
X193641379Y-74727452D01*
X193692961Y-74717192D01*
X193780419Y-74658755D01*
X193838856Y-74571297D01*
X193839795Y-74566573D01*
X193844159Y-74554850D01*
X193844157Y-74554849D01*
X193844177Y-74554803D01*
X193844623Y-74553604D01*
X193845024Y-74552899D01*
X193865164Y-74492091D01*
X193866856Y-74486384D01*
X193867227Y-74484971D01*
X193868534Y-74479282D01*
X193879159Y-74425458D01*
X193879357Y-74424516D01*
X193886267Y-74393548D01*
X193889462Y-74384297D01*
X193891617Y-74379783D01*
X193898216Y-74365959D01*
X193904126Y-74356769D01*
X193934168Y-74320938D01*
X193942055Y-74307264D01*
X193948968Y-74298253D01*
X194021060Y-74226163D01*
X194051783Y-74213437D01*
X205141267Y-74213437D01*
X205171991Y-74226163D01*
X205184717Y-74256887D01*
X205171991Y-74287611D01*
X205169203Y-74290164D01*
X205116626Y-74334283D01*
X205097643Y-74350212D01*
X205037796Y-74453869D01*
X205017013Y-74571740D01*
X205037796Y-74689610D01*
X205037796Y-74689611D01*
X205037797Y-74689612D01*
X205097643Y-74793268D01*
X205154517Y-74840991D01*
X205189332Y-74870205D01*
X205301804Y-74911140D01*
X205421494Y-74911140D01*
X205533965Y-74870205D01*
X205533965Y-74870204D01*
X205533967Y-74870204D01*
X205625655Y-74793268D01*
X205685501Y-74689612D01*
X205706285Y-74571740D01*
X205685501Y-74453868D01*
X205625655Y-74350212D01*
X205554101Y-74290170D01*
X205538746Y-74260674D01*
X205548746Y-74228958D01*
X205578244Y-74213602D01*
X205582031Y-74213437D01*
X205941267Y-74213437D01*
X205971991Y-74226163D01*
X205984717Y-74256887D01*
X205971991Y-74287611D01*
X205969203Y-74290164D01*
X205916626Y-74334283D01*
X205897643Y-74350212D01*
X205837796Y-74453869D01*
X205817013Y-74571740D01*
X205837796Y-74689610D01*
X205837796Y-74689611D01*
X205837797Y-74689612D01*
X205897643Y-74793268D01*
X205954517Y-74840991D01*
X205989332Y-74870205D01*
X206101804Y-74911140D01*
X206221494Y-74911140D01*
X206333965Y-74870205D01*
X206333965Y-74870204D01*
X206333967Y-74870204D01*
X206425655Y-74793268D01*
X206485501Y-74689612D01*
X206502759Y-74591736D01*
X206520626Y-74563691D01*
X206553093Y-74556493D01*
X206576272Y-74568559D01*
X206965879Y-74958166D01*
X206978605Y-74988890D01*
X206965879Y-75019614D01*
X206935155Y-75032340D01*
X206901804Y-75032340D01*
X206789332Y-75073274D01*
X206697643Y-75150212D01*
X206637796Y-75253869D01*
X206617013Y-75371740D01*
X206637796Y-75489610D01*
X206637796Y-75489611D01*
X206637797Y-75489612D01*
X206697643Y-75593268D01*
X206768347Y-75652596D01*
X206789332Y-75670205D01*
X206901804Y-75711140D01*
X207021494Y-75711140D01*
X207133965Y-75670205D01*
X207133965Y-75670204D01*
X207133967Y-75670204D01*
X207225655Y-75593268D01*
X207285501Y-75489612D01*
X207302759Y-75391736D01*
X207320626Y-75363691D01*
X207353093Y-75356493D01*
X207376272Y-75368559D01*
X207615073Y-75607360D01*
X207627799Y-75638084D01*
X207627799Y-75647838D01*
X207625857Y-75660681D01*
X207622214Y-75672453D01*
X207614188Y-75749567D01*
X207611054Y-75761839D01*
X207595436Y-75799169D01*
X207590275Y-75808252D01*
X207559157Y-75850284D01*
X207557384Y-75852680D01*
X207510020Y-75916088D01*
X207507713Y-75919176D01*
X207503419Y-75925434D01*
X207502435Y-75926999D01*
X207498711Y-75933480D01*
X207452918Y-76021055D01*
X207451140Y-76024640D01*
X207450714Y-76025548D01*
X207449971Y-76028846D01*
X207445215Y-76041016D01*
X207437797Y-76053865D01*
X207437797Y-76053867D01*
X207417013Y-76171740D01*
X207437796Y-76289610D01*
X207437796Y-76289611D01*
X207437797Y-76289612D01*
X207497643Y-76393268D01*
X207556608Y-76442746D01*
X207589332Y-76470205D01*
X207701804Y-76511140D01*
X207821494Y-76511140D01*
X207933965Y-76470205D01*
X207933965Y-76470204D01*
X207933967Y-76470204D01*
X207973071Y-76437391D01*
X208004785Y-76427391D01*
X208034283Y-76442746D01*
X208044449Y-76470676D01*
X208044449Y-76561766D01*
X208044449Y-76615014D01*
X208064827Y-76664210D01*
X208064828Y-76664211D01*
X208096547Y-76695930D01*
X208104255Y-76706385D01*
X208110004Y-76717286D01*
X208110005Y-76717287D01*
X208158858Y-76777490D01*
X208165320Y-76788383D01*
X208180672Y-76825821D01*
X208183445Y-76835894D01*
X208191604Y-76890573D01*
X208191631Y-76890757D01*
X208203493Y-76972670D01*
X208204865Y-76980061D01*
X208205279Y-76981885D01*
X208207248Y-76989188D01*
X208235782Y-77080271D01*
X208237108Y-77085708D01*
X208237797Y-77089612D01*
X208297643Y-77193268D01*
X208371077Y-77254887D01*
X208389332Y-77270205D01*
X208437193Y-77287624D01*
X208500483Y-77310659D01*
X208525001Y-77333125D01*
X208526452Y-77366348D01*
X208504543Y-77390602D01*
X208503426Y-77391142D01*
X208499642Y-77393076D01*
X208498772Y-77393546D01*
X208495006Y-77395690D01*
X208424912Y-77437738D01*
X208418169Y-77442186D01*
X208416555Y-77443353D01*
X208410144Y-77448423D01*
X208332669Y-77515316D01*
X208330162Y-77517559D01*
X208329596Y-77518084D01*
X208329588Y-77518092D01*
X208323892Y-77526241D01*
X208316213Y-77534628D01*
X208297644Y-77550211D01*
X208297643Y-77550212D01*
X208237796Y-77653869D01*
X208217013Y-77771740D01*
X208237796Y-77889610D01*
X208237796Y-77889611D01*
X208237797Y-77889612D01*
X208297643Y-77993268D01*
X208370664Y-78054540D01*
X208389332Y-78070205D01*
X208501804Y-78111140D01*
X208621494Y-78111140D01*
X208733965Y-78070205D01*
X208733965Y-78070204D01*
X208733967Y-78070204D01*
X208739769Y-78065334D01*
X208771485Y-78055334D01*
X208800983Y-78070689D01*
X208811149Y-78098619D01*
X208811149Y-78103418D01*
X208798423Y-78134142D01*
X208795080Y-78137155D01*
X208765631Y-78161052D01*
X208755900Y-78168948D01*
X208745007Y-78175409D01*
X208707565Y-78190763D01*
X208697492Y-78193536D01*
X208642894Y-78201682D01*
X208642710Y-78201709D01*
X208560707Y-78213585D01*
X208553314Y-78214958D01*
X208553310Y-78214959D01*
X208551505Y-78215369D01*
X208551497Y-78215371D01*
X208551480Y-78215375D01*
X208544206Y-78217336D01*
X208449915Y-78246877D01*
X208446014Y-78248193D01*
X208445109Y-78248520D01*
X208432513Y-78256492D01*
X208424140Y-78260605D01*
X208389331Y-78273275D01*
X208297643Y-78350212D01*
X208237796Y-78453869D01*
X208217867Y-78566895D01*
X208217013Y-78571740D01*
X208217600Y-78575069D01*
X208237796Y-78689610D01*
X208237796Y-78689611D01*
X208237797Y-78689612D01*
X208297643Y-78793268D01*
X208336096Y-78825534D01*
X208389332Y-78870205D01*
X208501804Y-78911140D01*
X208621494Y-78911140D01*
X208733965Y-78870205D01*
X208733965Y-78870204D01*
X208733967Y-78870204D01*
X208825655Y-78793268D01*
X208885501Y-78689612D01*
X208886191Y-78685689D01*
X208887512Y-78680268D01*
X208916043Y-78589201D01*
X208918011Y-78581908D01*
X208918425Y-78580087D01*
X208919799Y-78572689D01*
X208931696Y-78490538D01*
X208939848Y-78435893D01*
X208942619Y-78425827D01*
X208957975Y-78388380D01*
X208964431Y-78377496D01*
X209013290Y-78317289D01*
X209020452Y-78304521D01*
X209027616Y-78295063D01*
X209058471Y-78264210D01*
X209078849Y-78215014D01*
X209078849Y-78161766D01*
X209078849Y-78070676D01*
X209091575Y-78039952D01*
X209122299Y-78027226D01*
X209150226Y-78037391D01*
X209170664Y-78054540D01*
X209189332Y-78070205D01*
X209301804Y-78111140D01*
X209421494Y-78111140D01*
X209533965Y-78070205D01*
X209533965Y-78070204D01*
X209533967Y-78070204D01*
X209625655Y-77993268D01*
X209682408Y-77894966D01*
X209683556Y-77893092D01*
X209684699Y-77891331D01*
X209684701Y-77891326D01*
X209685295Y-77890176D01*
X209685498Y-77889616D01*
X209685501Y-77889612D01*
X209685501Y-77889606D01*
X209686523Y-77886798D01*
X209686972Y-77885613D01*
X209717171Y-77809730D01*
X209730169Y-77777709D01*
X209734630Y-77766720D01*
X209757977Y-77743039D01*
X209791232Y-77742804D01*
X209814913Y-77766151D01*
X209817679Y-77775518D01*
X209837300Y-77886798D01*
X209837797Y-77889612D01*
X209895390Y-77989365D01*
X209899730Y-78022336D01*
X209879486Y-78048719D01*
X209857761Y-78054540D01*
X209771623Y-78054540D01*
X209718375Y-78054540D01*
X209680557Y-78070205D01*
X209669179Y-78074918D01*
X209637457Y-78106639D01*
X209627006Y-78114345D01*
X209616107Y-78120093D01*
X209616103Y-78120096D01*
X209555900Y-78168948D01*
X209545007Y-78175409D01*
X209507565Y-78190763D01*
X209497492Y-78193536D01*
X209442894Y-78201682D01*
X209442710Y-78201709D01*
X209360707Y-78213585D01*
X209353314Y-78214958D01*
X209353310Y-78214959D01*
X209351505Y-78215369D01*
X209351497Y-78215371D01*
X209351480Y-78215375D01*
X209344206Y-78217336D01*
X209249915Y-78246877D01*
X209246014Y-78248193D01*
X209245109Y-78248520D01*
X209232513Y-78256492D01*
X209224140Y-78260605D01*
X209189331Y-78273275D01*
X209097643Y-78350212D01*
X209037796Y-78453869D01*
X209017013Y-78571740D01*
X209037796Y-78689610D01*
X209037796Y-78689611D01*
X209037797Y-78689612D01*
X209097643Y-78793268D01*
X209136096Y-78825534D01*
X209189332Y-78870205D01*
X209301804Y-78911140D01*
X209421494Y-78911140D01*
X209533965Y-78870205D01*
X209533965Y-78870204D01*
X209533967Y-78870204D01*
X209625655Y-78793268D01*
X209685501Y-78689612D01*
X209686191Y-78685689D01*
X209687512Y-78680268D01*
X209716043Y-78589201D01*
X209718011Y-78581908D01*
X209718425Y-78580087D01*
X209719799Y-78572689D01*
X209731696Y-78490538D01*
X209739848Y-78435893D01*
X209742619Y-78425827D01*
X209757975Y-78388380D01*
X209764436Y-78377491D01*
X209764736Y-78377122D01*
X209786573Y-78350212D01*
X209796231Y-78338311D01*
X209825472Y-78322473D01*
X209829969Y-78322240D01*
X209838535Y-78322240D01*
X209869259Y-78334966D01*
X209881985Y-78365690D01*
X209876164Y-78387415D01*
X209837796Y-78453869D01*
X209817013Y-78571740D01*
X209837796Y-78689610D01*
X209837796Y-78689611D01*
X209837797Y-78689612D01*
X209897643Y-78793268D01*
X209936096Y-78825534D01*
X209989332Y-78870205D01*
X210101804Y-78911140D01*
X210221494Y-78911140D01*
X210333967Y-78870204D01*
X210368734Y-78841030D01*
X210387202Y-78825534D01*
X210393321Y-78821239D01*
X210400839Y-78816874D01*
X210409036Y-78812118D01*
X210466389Y-78761589D01*
X210471520Y-78757705D01*
X210517100Y-78728261D01*
X210520013Y-78726538D01*
X210550768Y-78709944D01*
X210562476Y-78705729D01*
X210562812Y-78705590D01*
X210562814Y-78705590D01*
X210612010Y-78685212D01*
X210660654Y-78636566D01*
X210662591Y-78634748D01*
X210709381Y-78593530D01*
X210711591Y-78591520D01*
X210712130Y-78591014D01*
X210723152Y-78575067D01*
X210728164Y-78569056D01*
X211353270Y-77943953D01*
X211373647Y-77894757D01*
X211373647Y-77841509D01*
X211373647Y-77832869D01*
X211373645Y-77832865D01*
X211373645Y-73341509D01*
X211353267Y-73292313D01*
X211315615Y-73254661D01*
X211315614Y-73254660D01*
X210782214Y-72721261D01*
X210733018Y-72700883D01*
X210733016Y-72700883D01*
X208179837Y-72700883D01*
X208149113Y-72688157D01*
X207715618Y-72254662D01*
X207715617Y-72254661D01*
X207666421Y-72234283D01*
X192440697Y-72234283D01*
X192387449Y-72234283D01*
X192362851Y-72244471D01*
X192338252Y-72254660D01*
X191071357Y-73521557D01*
X191040633Y-73534283D01*
X186916421Y-73534283D01*
X186863173Y-73534283D01*
X186816664Y-73553548D01*
X186813975Y-73554662D01*
X186258835Y-74109801D01*
X186248995Y-74117179D01*
X186236996Y-74123755D01*
X186201157Y-74153800D01*
X186191962Y-74159713D01*
X186173631Y-74168464D01*
X186164374Y-74171660D01*
X186133508Y-74178547D01*
X186132462Y-74178767D01*
X186078623Y-74189396D01*
X186072851Y-74190725D01*
X186071486Y-74191085D01*
X186065861Y-74192754D01*
X186018941Y-74208296D01*
X186005002Y-74212914D01*
X186003595Y-74213407D01*
X186001880Y-74214008D01*
X186001207Y-74214257D01*
X185999940Y-74214887D01*
X185989102Y-74218582D01*
X185986635Y-74219072D01*
X185986628Y-74219075D01*
X185899178Y-74277507D01*
X185899174Y-74277511D01*
X185840738Y-74364969D01*
X185840737Y-74364969D01*
X185823054Y-74453869D01*
X185820217Y-74468133D01*
X185653942Y-74468133D01*
X185705357Y-74214148D01*
X185706168Y-74210829D01*
X185785917Y-73933108D01*
X185786998Y-73929841D01*
X185889008Y-73658437D01*
X185889621Y-73656898D01*
X185910167Y-73608235D01*
X185910167Y-73608232D01*
X185911857Y-73604230D01*
X185911858Y-73604223D01*
X186796728Y-71508218D01*
X210455615Y-71508218D01*
X210476398Y-71626088D01*
X210476398Y-71626089D01*
X210476399Y-71626090D01*
X210536245Y-71729746D01*
X210598765Y-71782207D01*
X210627934Y-71806683D01*
X210651968Y-71815430D01*
X210725138Y-71842061D01*
X210749656Y-71864527D01*
X210751107Y-71897750D01*
X210738207Y-71916174D01*
X210697643Y-71950211D01*
X210637796Y-72053869D01*
X210617013Y-72171740D01*
X210637796Y-72289610D01*
X210637796Y-72289611D01*
X210637797Y-72289612D01*
X210697643Y-72393268D01*
X210776624Y-72459541D01*
X210789332Y-72470205D01*
X210901804Y-72511140D01*
X211021494Y-72511140D01*
X211133965Y-72470205D01*
X211133965Y-72470204D01*
X211133967Y-72470204D01*
X211225655Y-72393268D01*
X211285501Y-72289612D01*
X211306285Y-72171740D01*
X211285501Y-72053868D01*
X211225655Y-71950212D01*
X211133967Y-71873276D01*
X211133965Y-71873274D01*
X211036762Y-71837897D01*
X211012243Y-71815430D01*
X211012043Y-71810853D01*
X213840059Y-71810853D01*
X213866594Y-71909887D01*
X213866596Y-71909892D01*
X213895751Y-71960390D01*
X213917861Y-71998685D01*
X214960360Y-73041184D01*
X214960362Y-73041185D01*
X214986859Y-73056483D01*
X215012133Y-73071075D01*
X215032377Y-73097458D01*
X215033858Y-73108704D01*
X215033858Y-73750898D01*
X215021132Y-73781622D01*
X215014551Y-73787023D01*
X215011029Y-73789376D01*
X215011023Y-73789382D01*
X214952591Y-73876832D01*
X214952589Y-73876836D01*
X214937109Y-73954661D01*
X214932069Y-73980000D01*
X214952590Y-74083164D01*
X214973324Y-74114195D01*
X215011003Y-74170587D01*
X215011027Y-74170622D01*
X215098485Y-74229059D01*
X215201648Y-74249580D01*
X215201649Y-74249580D01*
X215201650Y-74249580D01*
X215253231Y-74239319D01*
X215304813Y-74229059D01*
X215392271Y-74170622D01*
X215450708Y-74083164D01*
X215471229Y-73980000D01*
X215450708Y-73876836D01*
X215392271Y-73789378D01*
X215392269Y-73789376D01*
X215384368Y-73784097D01*
X215365893Y-73756447D01*
X215365058Y-73747970D01*
X215365058Y-73162437D01*
X215377784Y-73131713D01*
X215408508Y-73118987D01*
X217470723Y-73118987D01*
X217470729Y-73118986D01*
X217569761Y-73092450D01*
X217658555Y-73041184D01*
X217731055Y-72968684D01*
X217782321Y-72879890D01*
X217808857Y-72780858D01*
X217808858Y-72780851D01*
X217808858Y-72678322D01*
X217808857Y-72678315D01*
X217782321Y-72579283D01*
X217742977Y-72511140D01*
X217731055Y-72490490D01*
X217658555Y-72417990D01*
X217569761Y-72366724D01*
X217569761Y-72366723D01*
X217470729Y-72340187D01*
X217470723Y-72340187D01*
X217032914Y-72340187D01*
X215378751Y-72340187D01*
X215348027Y-72327461D01*
X214468556Y-71447990D01*
X214379763Y-71396725D01*
X214379758Y-71396723D01*
X214280724Y-71370188D01*
X214280723Y-71370188D01*
X214178193Y-71370188D01*
X214178191Y-71370188D01*
X214079157Y-71396723D01*
X214079152Y-71396725D01*
X213990359Y-71447990D01*
X213917861Y-71520488D01*
X213866596Y-71609281D01*
X213866594Y-71609286D01*
X213840059Y-71708320D01*
X213840059Y-71810853D01*
X211012043Y-71810853D01*
X211010792Y-71782207D01*
X211023690Y-71763785D01*
X211064257Y-71729746D01*
X211124103Y-71626090D01*
X211144887Y-71508218D01*
X211124103Y-71390346D01*
X211064257Y-71286690D01*
X210972569Y-71209754D01*
X210972567Y-71209752D01*
X210860096Y-71168818D01*
X210740406Y-71168818D01*
X210627934Y-71209752D01*
X210536245Y-71286690D01*
X210476398Y-71390347D01*
X210455615Y-71508218D01*
X186796728Y-71508218D01*
X187049580Y-70909284D01*
X209712781Y-70909284D01*
X209733564Y-71027154D01*
X209733564Y-71027155D01*
X209733565Y-71027156D01*
X209793411Y-71130812D01*
X209872392Y-71197085D01*
X209885100Y-71207749D01*
X209997572Y-71248684D01*
X210117262Y-71248684D01*
X210229733Y-71207749D01*
X210229733Y-71207748D01*
X210229735Y-71207748D01*
X210321423Y-71130812D01*
X210381269Y-71027156D01*
X210402053Y-70909284D01*
X210381269Y-70791412D01*
X210321423Y-70687756D01*
X210229735Y-70610820D01*
X210229733Y-70610818D01*
X210117262Y-70569884D01*
X209997572Y-70569884D01*
X209885100Y-70610818D01*
X209793411Y-70687756D01*
X209733564Y-70791413D01*
X209712781Y-70909284D01*
X187049580Y-70909284D01*
X187613330Y-69573922D01*
X187615731Y-69569096D01*
X187627589Y-69548558D01*
X187633760Y-69537871D01*
X187636644Y-69521506D01*
X187639400Y-69512169D01*
X188394156Y-67724370D01*
X188394608Y-67723339D01*
X188614454Y-67240207D01*
X188615501Y-67238066D01*
X188861339Y-66768349D01*
X188862479Y-66766308D01*
X189133867Y-66310785D01*
X189135113Y-66308819D01*
X189431169Y-65868973D01*
X189432515Y-65867085D01*
X189752373Y-65444205D01*
X189753828Y-65442387D01*
X190096497Y-65037778D01*
X190098063Y-65036030D01*
X190463067Y-64650327D01*
X190463864Y-64649509D01*
X190501302Y-64612071D01*
X190823802Y-64289571D01*
X191014423Y-64098950D01*
X193361853Y-64098950D01*
X193382374Y-64202114D01*
X193440811Y-64289572D01*
X193528269Y-64348009D01*
X193631432Y-64368530D01*
X193631433Y-64368530D01*
X193631434Y-64368530D01*
X193687311Y-64357415D01*
X193734597Y-64348009D01*
X193822055Y-64289572D01*
X193840800Y-64261516D01*
X193868449Y-64243042D01*
X193876927Y-64242207D01*
X195247770Y-64242207D01*
X195278494Y-64254933D01*
X195283897Y-64261517D01*
X195308928Y-64298979D01*
X195396386Y-64357416D01*
X195499549Y-64377937D01*
X195499550Y-64377937D01*
X195499551Y-64377937D01*
X195551132Y-64367676D01*
X195602714Y-64357416D01*
X195690172Y-64298979D01*
X195748609Y-64211521D01*
X195769130Y-64108357D01*
X195748609Y-64005193D01*
X195690172Y-63917735D01*
X195676093Y-63908328D01*
X195661150Y-63898343D01*
X195602714Y-63859298D01*
X195602713Y-63859297D01*
X195499551Y-63838777D01*
X195499549Y-63838777D01*
X195396386Y-63859297D01*
X195396386Y-63859298D01*
X195308928Y-63917734D01*
X195283898Y-63955196D01*
X195256247Y-63973672D01*
X195247770Y-63974507D01*
X193889498Y-63974507D01*
X193858774Y-63961781D01*
X193853374Y-63955202D01*
X193822055Y-63908328D01*
X193734597Y-63849891D01*
X193734596Y-63849890D01*
X193631434Y-63829370D01*
X193631432Y-63829370D01*
X193528269Y-63849890D01*
X193528269Y-63849891D01*
X193440811Y-63908327D01*
X193440810Y-63908328D01*
X193382374Y-63995786D01*
X193382373Y-63995786D01*
X193361853Y-64098949D01*
X193361853Y-64098950D01*
X191014423Y-64098950D01*
X191859830Y-63253541D01*
X191862615Y-63250991D01*
X191895655Y-63223268D01*
X191955501Y-63119612D01*
X191962991Y-63077129D01*
X191963804Y-63073461D01*
X191971050Y-63046423D01*
X191971050Y-63035230D01*
X191971710Y-63027685D01*
X191976285Y-63001740D01*
X191971710Y-62975793D01*
X191971050Y-62968248D01*
X191971050Y-62957061D01*
X191971050Y-62957057D01*
X191963806Y-62930024D01*
X191962989Y-62926338D01*
X191955501Y-62883869D01*
X191955501Y-62883868D01*
X191950781Y-62875693D01*
X191950780Y-62875690D01*
X191901813Y-62790877D01*
X191901810Y-62790873D01*
X191895655Y-62780212D01*
X191895653Y-62780210D01*
X191862614Y-62752487D01*
X191859832Y-62749937D01*
X191840049Y-62730154D01*
X191840040Y-62730148D01*
X191830356Y-62724557D01*
X191824152Y-62720213D01*
X191803967Y-62703276D01*
X191779204Y-62694262D01*
X191772344Y-62691063D01*
X191762655Y-62685469D01*
X191762652Y-62685468D01*
X191735635Y-62678229D01*
X191732021Y-62677090D01*
X191691494Y-62662340D01*
X191679004Y-62662340D01*
X191678988Y-62662339D01*
X191676332Y-62662339D01*
X191586966Y-62662339D01*
X191584310Y-62662339D01*
X191584294Y-62662340D01*
X191571804Y-62662340D01*
X191531275Y-62677090D01*
X191527662Y-62678229D01*
X191500644Y-62685469D01*
X191490952Y-62691064D01*
X191484094Y-62694262D01*
X191459331Y-62703276D01*
X191459329Y-62703277D01*
X191439141Y-62720216D01*
X191432941Y-62724557D01*
X191423253Y-62730151D01*
X191423249Y-62730154D01*
X191403474Y-62749928D01*
X191400682Y-62752487D01*
X191367644Y-62780210D01*
X191367642Y-62780213D01*
X191362919Y-62788392D01*
X191356017Y-62797386D01*
X189949802Y-64203602D01*
X189949743Y-64203669D01*
X189781720Y-64371696D01*
X189401373Y-64796476D01*
X189045008Y-65241575D01*
X188779526Y-65613443D01*
X188772095Y-65621479D01*
X188770366Y-65622929D01*
X188770362Y-65622934D01*
X188761315Y-65638604D01*
X188759050Y-65642123D01*
X188713719Y-65705621D01*
X188713704Y-65705643D01*
X188408493Y-66187236D01*
X188130299Y-66684885D01*
X188130268Y-66684943D01*
X187879907Y-67197193D01*
X187879904Y-67197200D01*
X187786401Y-67418674D01*
X187786399Y-67418678D01*
X187633072Y-67781865D01*
X187006479Y-69266083D01*
X187004079Y-69270908D01*
X186986056Y-69302125D01*
X186986055Y-69302127D01*
X186983171Y-69318480D01*
X186980411Y-69327830D01*
X185245477Y-73437394D01*
X185245409Y-73437591D01*
X185196481Y-73553545D01*
X185087504Y-73882859D01*
X185005161Y-74219808D01*
X185005157Y-74219825D01*
X184949968Y-74562257D01*
X184949966Y-74562271D01*
X184922282Y-74908013D01*
X184922280Y-74908048D01*
X184922257Y-75033989D01*
X184922249Y-75034125D01*
X184922249Y-75081477D01*
X184922248Y-75138728D01*
X184922249Y-75138741D01*
X184922249Y-86410737D01*
X184922247Y-86410767D01*
X184922248Y-86449504D01*
X184922216Y-86449582D01*
X182780297Y-86449582D01*
X182780297Y-74104167D01*
X182780313Y-74102999D01*
X182786395Y-73876836D01*
X182794449Y-73577358D01*
X182794574Y-73575034D01*
X182796222Y-73554662D01*
X182836908Y-73051466D01*
X182837159Y-73049145D01*
X182843177Y-73004661D01*
X182907582Y-72528606D01*
X182907956Y-72526315D01*
X183006264Y-72010328D01*
X183006760Y-72008062D01*
X183132675Y-71498080D01*
X183133276Y-71495899D01*
X183286437Y-70993405D01*
X183287160Y-70991242D01*
X183467114Y-70497716D01*
X183467959Y-70495579D01*
X183674527Y-70011652D01*
X183674920Y-70010764D01*
X183690441Y-69976954D01*
X183690441Y-69976952D01*
X188959879Y-58497104D01*
X188960866Y-58495094D01*
X189027750Y-58367296D01*
X189094306Y-58240124D01*
X189096595Y-58236254D01*
X189255093Y-57997388D01*
X189257751Y-57993801D01*
X189440120Y-57772618D01*
X189443147Y-57769312D01*
X189647427Y-57568194D01*
X189650794Y-57565208D01*
X189746368Y-57488877D01*
X189874780Y-57386319D01*
X189878419Y-57383709D01*
X190119740Y-57228948D01*
X190123617Y-57226736D01*
X190379656Y-57097783D01*
X190383765Y-57095975D01*
X190651748Y-56994224D01*
X190656021Y-56992849D01*
X190933119Y-56919371D01*
X190937507Y-56918449D01*
X191220709Y-56874046D01*
X191225178Y-56873581D01*
X191512128Y-56858692D01*
X191514439Y-56858634D01*
X205466216Y-56878361D01*
G37*
%TD.AperFunction*%
%TA.AperFunction,Conductor*%
G36*
X210267498Y-78346765D02*
G01*
X210268858Y-78347438D01*
X210342238Y-78389845D01*
X210343776Y-78390906D01*
X210410238Y-78445078D01*
X210468174Y-78486151D01*
X210526154Y-78494626D01*
X210585548Y-78456662D01*
X210594364Y-78455094D01*
X210600122Y-78458247D01*
X210647519Y-78505644D01*
X210650946Y-78513917D01*
X210647519Y-78522190D01*
X210646980Y-78522696D01*
X210583728Y-78578418D01*
X210582343Y-78579467D01*
X210524716Y-78616695D01*
X210523923Y-78617164D01*
X210470425Y-78646030D01*
X210411683Y-78683978D01*
X210411678Y-78683981D01*
X210346633Y-78741285D01*
X210338160Y-78744183D01*
X210330659Y-78740812D01*
X210166524Y-78577985D01*
X210163065Y-78569727D01*
X210163961Y-78565188D01*
X210252201Y-78353073D01*
X210258543Y-78346752D01*
X210267498Y-78346765D01*
G37*
%TD.AperFunction*%
%TA.AperFunction,Conductor*%
G36*
X210267660Y-77546376D02*
G01*
X210268682Y-77546861D01*
X210337576Y-77583796D01*
X210338648Y-77584447D01*
X210402766Y-77628260D01*
X210402775Y-77628265D01*
X210402777Y-77628266D01*
X210459150Y-77658313D01*
X210515197Y-77659293D01*
X210515197Y-77659292D01*
X210515199Y-77659293D01*
X210570829Y-77621652D01*
X210579599Y-77619855D01*
X210585656Y-77623070D01*
X210633207Y-77670621D01*
X210636634Y-77678894D01*
X210633207Y-77687167D01*
X210633000Y-77687369D01*
X210569083Y-77748196D01*
X210568574Y-77748653D01*
X210514422Y-77794473D01*
X210514136Y-77794707D01*
X210465832Y-77833025D01*
X210411284Y-77879179D01*
X210411253Y-77879207D01*
X210346661Y-77940679D01*
X210338305Y-77943900D01*
X210330355Y-77940510D01*
X210267160Y-77877818D01*
X210166524Y-77777985D01*
X210163065Y-77769727D01*
X210163961Y-77765188D01*
X210252363Y-77552684D01*
X210258705Y-77546363D01*
X210267660Y-77546376D01*
G37*
%TD.AperFunction*%
%TA.AperFunction,Conductor*%
G36*
X209691227Y-78194212D02*
G01*
X209739176Y-78242161D01*
X209742603Y-78250434D01*
X209739988Y-78257806D01*
X209678343Y-78333771D01*
X209678340Y-78333776D01*
X209648949Y-78405448D01*
X209648947Y-78405453D01*
X209638294Y-78476853D01*
X209626374Y-78559159D01*
X209625960Y-78560980D01*
X209596428Y-78655249D01*
X209590685Y-78662119D01*
X209581765Y-78662916D01*
X209580826Y-78662577D01*
X209365473Y-78574304D01*
X209359117Y-78567995D01*
X209359084Y-78567915D01*
X209270811Y-78352560D01*
X209270844Y-78343608D01*
X209277200Y-78337299D01*
X209278135Y-78336961D01*
X209372415Y-78307424D01*
X209374220Y-78307014D01*
X209424374Y-78299750D01*
X209456534Y-78295093D01*
X209483389Y-78291085D01*
X209527937Y-78284439D01*
X209599614Y-78255046D01*
X209675584Y-78193399D01*
X209684165Y-78190848D01*
X209691227Y-78194212D01*
G37*
%TD.AperFunction*%
%TA.AperFunction,Conductor*%
G36*
X208247714Y-76593399D02*
G01*
X208279326Y-76619052D01*
X208323680Y-76655044D01*
X208323682Y-76655045D01*
X208323683Y-76655046D01*
X208395360Y-76684439D01*
X208432859Y-76690034D01*
X208466762Y-76695093D01*
X208466761Y-76695093D01*
X208511136Y-76701519D01*
X208549073Y-76707014D01*
X208550883Y-76707425D01*
X208628641Y-76731785D01*
X208645158Y-76736960D01*
X208652028Y-76742704D01*
X208652825Y-76751623D01*
X208652486Y-76752562D01*
X208564213Y-76967915D01*
X208557904Y-76974271D01*
X208557824Y-76974304D01*
X208342471Y-77062577D01*
X208333517Y-77062544D01*
X208327208Y-77056188D01*
X208326869Y-77055249D01*
X208321694Y-77038732D01*
X208297334Y-76960974D01*
X208296922Y-76959159D01*
X208285002Y-76876853D01*
X208274348Y-76805453D01*
X208274348Y-76805451D01*
X208244955Y-76733774D01*
X208183308Y-76657805D01*
X208180757Y-76649223D01*
X208184120Y-76642162D01*
X208232071Y-76594211D01*
X208240343Y-76590785D01*
X208247714Y-76593399D01*
G37*
%TD.AperFunction*%
%TA.AperFunction,Conductor*%
G36*
X193313430Y-74196792D02*
G01*
X193361136Y-74244498D01*
X193364563Y-74252771D01*
X193361829Y-74260288D01*
X193320557Y-74309515D01*
X193297540Y-74357729D01*
X193297538Y-74357734D01*
X193286869Y-74405548D01*
X193275922Y-74460998D01*
X193275551Y-74462411D01*
X193255411Y-74523219D01*
X193249556Y-74529995D01*
X193240625Y-74530647D01*
X193239889Y-74530375D01*
X193178681Y-74505398D01*
X193093644Y-74470698D01*
X193087278Y-74464399D01*
X193087231Y-74464285D01*
X193027556Y-74318043D01*
X193027603Y-74309090D01*
X193033969Y-74302791D01*
X193034685Y-74302526D01*
X193095529Y-74282372D01*
X193096900Y-74282011D01*
X193152392Y-74271056D01*
X193200193Y-74260391D01*
X193248412Y-74237371D01*
X193297642Y-74196098D01*
X193306182Y-74193410D01*
X193313430Y-74196792D01*
G37*
%TD.AperFunction*%
%TA.AperFunction,Conductor*%
G36*
X207803827Y-75675167D02*
G01*
X207807191Y-75682229D01*
X207817317Y-75779535D01*
X207847215Y-75851001D01*
X207847216Y-75851004D01*
X207890141Y-75908985D01*
X207890142Y-75908985D01*
X207939943Y-75975657D01*
X207940937Y-75977237D01*
X207986713Y-76064774D01*
X207987510Y-76073693D01*
X207981767Y-76080564D01*
X207980862Y-76080989D01*
X207766166Y-76170849D01*
X207757212Y-76170882D01*
X207757132Y-76170849D01*
X207542435Y-76080989D01*
X207536126Y-76074633D01*
X207536159Y-76065679D01*
X207536578Y-76064787D01*
X207582361Y-75977231D01*
X207583344Y-75975667D01*
X207633140Y-75909005D01*
X207676081Y-75851004D01*
X207705980Y-75779536D01*
X207716107Y-75682228D01*
X207720372Y-75674355D01*
X207727744Y-75671740D01*
X207795554Y-75671740D01*
X207803827Y-75675167D01*
G37*
%TD.AperFunction*%
%TA.AperFunction,Conductor*%
G36*
X186313430Y-74196792D02*
G01*
X186361136Y-74244498D01*
X186364563Y-74252771D01*
X186361829Y-74260288D01*
X186320557Y-74309515D01*
X186297540Y-74357729D01*
X186297538Y-74357734D01*
X186286869Y-74405548D01*
X186275922Y-74460998D01*
X186275551Y-74462411D01*
X186255411Y-74523219D01*
X186249556Y-74529995D01*
X186240625Y-74530647D01*
X186239889Y-74530375D01*
X186178681Y-74505398D01*
X186093644Y-74470698D01*
X186087278Y-74464399D01*
X186087231Y-74464285D01*
X186027556Y-74318043D01*
X186027603Y-74309090D01*
X186033969Y-74302791D01*
X186034685Y-74302526D01*
X186095529Y-74282372D01*
X186096900Y-74282011D01*
X186152392Y-74271056D01*
X186200193Y-74260391D01*
X186248412Y-74237371D01*
X186297642Y-74196098D01*
X186306182Y-74193410D01*
X186313430Y-74196792D01*
G37*
%TD.AperFunction*%
%TA.AperFunction,Conductor*%
G36*
X192813430Y-74196792D02*
G01*
X192861136Y-74244498D01*
X192864563Y-74252771D01*
X192861829Y-74260288D01*
X192820557Y-74309515D01*
X192797540Y-74357729D01*
X192797538Y-74357734D01*
X192786869Y-74405548D01*
X192775922Y-74460998D01*
X192775551Y-74462411D01*
X192755411Y-74523219D01*
X192749556Y-74529995D01*
X192740625Y-74530647D01*
X192739889Y-74530375D01*
X192678681Y-74505398D01*
X192593644Y-74470698D01*
X192587278Y-74464399D01*
X192587231Y-74464285D01*
X192527556Y-74318043D01*
X192527603Y-74309090D01*
X192533969Y-74302791D01*
X192534685Y-74302526D01*
X192595529Y-74282372D01*
X192596900Y-74282011D01*
X192652392Y-74271056D01*
X192700193Y-74260391D01*
X192748412Y-74237371D01*
X192797642Y-74196098D01*
X192806182Y-74193410D01*
X192813430Y-74196792D01*
G37*
%TD.AperFunction*%
%TA.AperFunction,Conductor*%
G36*
X192313430Y-74196792D02*
G01*
X192361136Y-74244498D01*
X192364563Y-74252771D01*
X192361829Y-74260288D01*
X192320557Y-74309515D01*
X192297540Y-74357729D01*
X192297538Y-74357734D01*
X192286869Y-74405548D01*
X192275922Y-74460998D01*
X192275551Y-74462411D01*
X192255411Y-74523219D01*
X192249556Y-74529995D01*
X192240625Y-74530647D01*
X192239889Y-74530375D01*
X192178681Y-74505398D01*
X192093644Y-74470698D01*
X192087278Y-74464399D01*
X192087231Y-74464285D01*
X192027556Y-74318043D01*
X192027603Y-74309090D01*
X192033969Y-74302791D01*
X192034685Y-74302526D01*
X192095529Y-74282372D01*
X192096900Y-74282011D01*
X192152392Y-74271056D01*
X192200193Y-74260391D01*
X192248412Y-74237371D01*
X192297642Y-74196098D01*
X192306182Y-74193410D01*
X192313430Y-74196792D01*
G37*
%TD.AperFunction*%
%TA.AperFunction,Conductor*%
G36*
X187313430Y-74196792D02*
G01*
X187361136Y-74244498D01*
X187364563Y-74252771D01*
X187361829Y-74260288D01*
X187320557Y-74309515D01*
X187297540Y-74357729D01*
X187297538Y-74357734D01*
X187286869Y-74405548D01*
X187275922Y-74460998D01*
X187275551Y-74462411D01*
X187255411Y-74523219D01*
X187249556Y-74529995D01*
X187240625Y-74530647D01*
X187239889Y-74530375D01*
X187178681Y-74505398D01*
X187093644Y-74470698D01*
X187087278Y-74464399D01*
X187087231Y-74464285D01*
X187027556Y-74318043D01*
X187027603Y-74309090D01*
X187033969Y-74302791D01*
X187034685Y-74302526D01*
X187095529Y-74282372D01*
X187096900Y-74282011D01*
X187152392Y-74271056D01*
X187200193Y-74260391D01*
X187248412Y-74237371D01*
X187297642Y-74196098D01*
X187306182Y-74193410D01*
X187313430Y-74196792D01*
G37*
%TD.AperFunction*%
%TA.AperFunction,Conductor*%
G36*
X187667235Y-74311742D02*
G01*
X187667937Y-74312065D01*
X187720285Y-74338364D01*
X187725183Y-74340825D01*
X187726445Y-74341561D01*
X187773420Y-74373046D01*
X187814751Y-74399298D01*
X187814757Y-74399301D01*
X187865125Y-74417117D01*
X187865128Y-74417118D01*
X187929123Y-74422744D01*
X187937063Y-74426882D01*
X187939797Y-74434399D01*
X187939797Y-74501866D01*
X187936370Y-74510139D01*
X187929122Y-74513521D01*
X187865125Y-74519147D01*
X187814757Y-74536963D01*
X187814751Y-74536966D01*
X187775493Y-74561902D01*
X187773413Y-74563224D01*
X187762269Y-74570692D01*
X187726448Y-74594700D01*
X187725187Y-74595436D01*
X187667953Y-74624191D01*
X187659022Y-74624843D01*
X187652245Y-74618989D01*
X187651922Y-74618288D01*
X187590702Y-74472666D01*
X187590656Y-74463713D01*
X187590703Y-74463599D01*
X187607484Y-74423683D01*
X187651915Y-74317993D01*
X187658281Y-74311695D01*
X187667235Y-74311742D01*
G37*
%TD.AperFunction*%
%TA.AperFunction,Conductor*%
G36*
X193813430Y-74196792D02*
G01*
X193861136Y-74244498D01*
X193864563Y-74252771D01*
X193861829Y-74260288D01*
X193820557Y-74309515D01*
X193797540Y-74357729D01*
X193797538Y-74357734D01*
X193786869Y-74405548D01*
X193775922Y-74460998D01*
X193775551Y-74462411D01*
X193755411Y-74523219D01*
X193749556Y-74529995D01*
X193740625Y-74530647D01*
X193739889Y-74530375D01*
X193678681Y-74505398D01*
X193593644Y-74470698D01*
X193587278Y-74464399D01*
X193587231Y-74464285D01*
X193527556Y-74318043D01*
X193527603Y-74309090D01*
X193533969Y-74302791D01*
X193534685Y-74302526D01*
X193595529Y-74282372D01*
X193596900Y-74282011D01*
X193652392Y-74271056D01*
X193700193Y-74260391D01*
X193748412Y-74237371D01*
X193797642Y-74196098D01*
X193806182Y-74193410D01*
X193813430Y-74196792D01*
G37*
%TD.AperFunction*%
%TA.AperFunction,Conductor*%
G36*
X208891227Y-78194212D02*
G01*
X208939176Y-78242161D01*
X208942603Y-78250434D01*
X208939988Y-78257806D01*
X208878343Y-78333771D01*
X208878340Y-78333776D01*
X208848949Y-78405448D01*
X208848947Y-78405453D01*
X208838294Y-78476853D01*
X208826374Y-78559159D01*
X208825960Y-78560980D01*
X208796428Y-78655249D01*
X208790685Y-78662119D01*
X208781765Y-78662916D01*
X208780826Y-78662577D01*
X208565473Y-78574304D01*
X208559117Y-78567995D01*
X208559084Y-78567915D01*
X208470811Y-78352560D01*
X208470844Y-78343608D01*
X208477200Y-78337299D01*
X208478135Y-78336961D01*
X208572415Y-78307424D01*
X208574220Y-78307014D01*
X208624374Y-78299750D01*
X208656534Y-78295093D01*
X208683389Y-78291085D01*
X208727937Y-78284439D01*
X208799614Y-78255046D01*
X208875584Y-78193399D01*
X208884165Y-78190848D01*
X208891227Y-78194212D01*
G37*
%TD.AperFunction*%
%TA.AperFunction,Conductor*%
G36*
X208776856Y-77333588D02*
G01*
X208824913Y-77381645D01*
X208828340Y-77389918D01*
X208826057Y-77396862D01*
X208777841Y-77462249D01*
X208777840Y-77462251D01*
X208766277Y-77526919D01*
X208766277Y-77526921D01*
X208779764Y-77593112D01*
X208779769Y-77593133D01*
X208779771Y-77593142D01*
X208787997Y-77623786D01*
X208800516Y-77670418D01*
X208800848Y-77672189D01*
X208810246Y-77758814D01*
X208807731Y-77767409D01*
X208799876Y-77771708D01*
X208798647Y-77771776D01*
X208565834Y-77772433D01*
X208557551Y-77769029D01*
X208393701Y-77603863D01*
X208390308Y-77595577D01*
X208393768Y-77587318D01*
X208394343Y-77586785D01*
X208471848Y-77519865D01*
X208473464Y-77518697D01*
X208543595Y-77476627D01*
X208544486Y-77476146D01*
X208610011Y-77444493D01*
X208681433Y-77401650D01*
X208760940Y-77333004D01*
X208769438Y-77330192D01*
X208776856Y-77333588D01*
G37*
%TD.AperFunction*%
%TA.AperFunction,Conductor*%
G36*
X186813430Y-74196792D02*
G01*
X186861136Y-74244498D01*
X186864563Y-74252771D01*
X186861829Y-74260288D01*
X186820557Y-74309515D01*
X186797540Y-74357729D01*
X186797538Y-74357734D01*
X186786869Y-74405548D01*
X186775922Y-74460998D01*
X186775551Y-74462411D01*
X186755411Y-74523219D01*
X186749556Y-74529995D01*
X186740625Y-74530647D01*
X186739889Y-74530375D01*
X186678681Y-74505398D01*
X186593644Y-74470698D01*
X186587278Y-74464399D01*
X186587231Y-74464285D01*
X186527556Y-74318043D01*
X186527603Y-74309090D01*
X186533969Y-74302791D01*
X186534685Y-74302526D01*
X186595529Y-74282372D01*
X186596900Y-74282011D01*
X186652392Y-74271056D01*
X186700193Y-74260391D01*
X186748412Y-74237371D01*
X186797642Y-74196098D01*
X186806182Y-74193410D01*
X186813430Y-74196792D01*
G37*
%TD.AperFunction*%
%TA.AperFunction,Conductor*%
G36*
X209741061Y-77468819D02*
G01*
X209788482Y-77516240D01*
X209791909Y-77524513D01*
X209788721Y-77532540D01*
X209728454Y-77596447D01*
X209685778Y-77652915D01*
X209685775Y-77652920D01*
X209656744Y-77707608D01*
X209629589Y-77774507D01*
X209596989Y-77856427D01*
X209590746Y-77862847D01*
X209581792Y-77862972D01*
X209581681Y-77862927D01*
X209368227Y-77775433D01*
X209361871Y-77769124D01*
X209360964Y-77764574D01*
X209361613Y-77534203D01*
X209365063Y-77525943D01*
X209373346Y-77522539D01*
X209374087Y-77522565D01*
X209459492Y-77528229D01*
X209460292Y-77528311D01*
X209535624Y-77538878D01*
X209544737Y-77539068D01*
X209599410Y-77540208D01*
X209599410Y-77540207D01*
X209599416Y-77540208D01*
X209661890Y-77518851D01*
X209661892Y-77518849D01*
X209661893Y-77518849D01*
X209695276Y-77492129D01*
X209725477Y-77467957D01*
X209734077Y-77465463D01*
X209741061Y-77468819D01*
G37*
%TD.AperFunction*%
D17*
X208002264Y-79307523D02*
G75*
G02*
X207939804Y-78959627I937236J347823D01*
G01*
X202064585Y-77999201D02*
G75*
G02*
X203474064Y-77418111I1409415J-1418699D01*
G01*
X182589797Y-74103596D02*
X182589797Y-92694033D01*
X211728382Y-69824893D02*
G75*
G02*
X210974324Y-70168108I-754082J656793D01*
G01*
X196839797Y-92217931D02*
G75*
G02*
X195435260Y-94127197I-1999997J31D01*
G01*
X208501386Y-69566249D02*
X207901345Y-68952468D01*
X182589797Y-74103596D02*
G75*
G02*
X183501507Y-69931921I9999503J96D01*
G01*
X197430318Y-82602596D02*
X202064585Y-77999201D01*
X205482345Y-56687886D02*
G75*
G02*
X206477312Y-57603086I-1445J-1000014D01*
G01*
X209033092Y-79447078D02*
G75*
G02*
X208578364Y-79739249I-454792J207878D01*
G01*
X214630524Y-69824902D02*
X214278925Y-69421202D01*
X212079991Y-69421196D02*
G75*
G02*
X212457031Y-69249574I377109J-328504D01*
G01*
X215384616Y-70168133D02*
G75*
G02*
X214630506Y-69824917I-16J1000033D01*
G01*
X219398478Y-70168133D02*
G75*
G02*
X220398466Y-71169205I22J-999967D01*
G01*
X207338679Y-67723952D02*
X206477329Y-57603085D01*
X208002264Y-79307523D02*
X208066022Y-79447024D01*
X220390868Y-78269243D02*
X220398477Y-71169205D01*
X183053355Y-93974402D02*
G75*
G02*
X182589818Y-92694033I1536345J1280302D01*
G01*
X209033092Y-79447078D02*
X209367274Y-79291822D01*
X205482345Y-56687886D02*
X191513697Y-56668133D01*
X207901345Y-68952468D02*
G75*
G02*
X207338716Y-67723949I1430155J1398068D01*
G01*
X185558172Y-96418133D02*
G75*
G02*
X184789927Y-96058337I-72J999933D01*
G01*
X212079991Y-69421196D02*
X211728382Y-69824893D01*
X209367274Y-79291823D02*
G75*
G02*
X209472598Y-79268557I105326J-226777D01*
G01*
X219398478Y-70168133D02*
X215384616Y-70168133D01*
X188787208Y-58416630D02*
X183501502Y-69931919D01*
X196839797Y-84021528D02*
G75*
G02*
X197430303Y-82602581I2000003J28D01*
G01*
X220390867Y-78269243D02*
G75*
G02*
X219390906Y-79268168I-999967J1043D01*
G01*
X206187819Y-77668133D02*
G75*
G02*
X205415935Y-77608194I-19J4999833D01*
G01*
X185558172Y-96418133D02*
X187328188Y-96418133D01*
X208520777Y-79739183D02*
G75*
G02*
X208065997Y-79447035I23J500083D01*
G01*
X208520777Y-79739183D02*
X208578364Y-79739183D01*
X213901879Y-69249587D02*
G75*
G02*
X214278940Y-69421189I21J-500013D01*
G01*
X206187819Y-77668133D02*
X207439797Y-77668133D01*
X188787208Y-58416630D02*
G75*
G02*
X191513697Y-56668111I2726492J-1251470D01*
G01*
X183053355Y-93974402D02*
X184789951Y-96058317D01*
X210974324Y-70168110D02*
X209931516Y-70168133D01*
X207939797Y-78168133D02*
X207939797Y-78959627D01*
X188816869Y-96191378D02*
G75*
G02*
X187328188Y-96418132I-1488669J4773278D01*
G01*
X209931516Y-70168133D02*
G75*
G02*
X208501371Y-69566264I-16J2000033D01*
G01*
X204352996Y-77442109D02*
X205415935Y-77608193D01*
X212457031Y-69249587D02*
X213901879Y-69249587D01*
X203474064Y-77418133D02*
X204044242Y-77418133D01*
X196839797Y-92217931D02*
X196839797Y-84021528D01*
X209472598Y-79268548D02*
X219390906Y-79268171D01*
X207439797Y-77668133D02*
G75*
G02*
X207939767Y-78168133I3J-499967D01*
G01*
X204044242Y-77418133D02*
G75*
G02*
X204352995Y-77442116I-42J-1999967D01*
G01*
X188816867Y-96191375D02*
X195435269Y-94127227D01*
M02*
