M48
; DRILL file {KiCad 8.0.0-rc1-4-g5bc78f7d9f} date 2024-02-16T20:23:13-0500
; FORMAT={-:-/ absolute / inch / decimal}
; #@! TF.CreationDate,2024-02-16T20:23:13-05:00
; #@! TF.GenerationSoftware,Kicad,Pcbnew,8.0.0-rc1-4-g5bc78f7d9f
; #@! TF.FileFunction,Plated,1,2,PTH
FMAT,2
INCH
; #@! TA.AperFunction,Plated,PTH,ViaDrill
T1C0.0059
; #@! TA.AperFunction,Plated,PTH,ViaDrill
T2C0.0098
; #@! TA.AperFunction,Plated,PTH,ViaDrill
T3C0.0276
%
G90
G05
T1
X7.2074Y-3.567
X7.2105Y-2.9038
X7.2105Y-3.469
X7.2113Y-3.0515
X7.2113Y-3.1805
X7.2113Y-3.2731
X7.2113Y-3.3788
X7.2128Y-3.6634
X7.2332Y-2.8052
X7.2595Y-2.7579
X7.2662Y-3.0619
X7.2662Y-3.1564
X7.2662Y-3.2509
X7.2662Y-3.3453
X7.2662Y-3.4398
X7.2662Y-3.5343
X7.2681Y-2.9791
X7.2692Y-2.8237
X7.2823Y-2.6882
X7.2918Y-3.7603
X7.3005Y-2.778
X7.3231Y-2.6086
X7.3264Y-2.9318
X7.3382Y-2.7161
X7.3461Y-2.9318
X7.3544Y-2.6209
X7.3607Y-3.1879
X7.3607Y-3.2824
X7.3607Y-3.3768
X7.3634Y-3.1153
X7.3657Y-2.9318
X7.3823Y-3.0094
X7.3834Y-2.463
X7.3844Y-2.6416
X7.3854Y-2.9318
X7.4102Y-2.8322
X7.4119Y-2.7824
X7.4219Y-2.3871
X7.4254Y-2.6947
X7.426Y-2.7466
X7.4402Y-2.3474
X7.4567Y-2.3047
X7.4607Y-3.0575
X7.4646Y-3.5914
X7.4674Y-2.9619
X7.4681Y-2.5157
X7.4687Y-3.2134
X7.4704Y-2.6677
X7.4704Y-2.739
X7.4724Y-2.2771
X7.4768Y-2.7775
X7.4779Y-2.3989
X7.4852Y-2.6163
X7.4928Y-2.4691
X7.496Y-2.2653
X7.4984Y-2.7051
X7.5075Y-3.4646
X7.5075Y-3.5646
X7.5086Y-2.3285
X7.5134Y-2.2496
X7.514Y-2.7581
X7.5182Y-3.3768
X7.521Y-3.7143
X7.5224Y-2.8207
X7.5354Y-2.2693
X7.5378Y-2.4086
X7.5382Y-2.5775
X7.5403Y-2.2463
X7.5414Y-3.1241
X7.5472Y-2.6901
X7.5476Y-2.5252
X7.5484Y-2.3834
X7.5484Y-2.435
X7.5485Y-3.0001
X7.5626Y-2.9318
X7.5673Y-2.6456
X7.5674Y-3.7188
X7.5812Y-3.3138
X7.5823Y-2.9318
X7.5833Y-2.8053
X7.602Y-2.9318
X7.6216Y-2.9318
X7.6228Y-2.5468
X7.6232Y-2.5019
X7.6233Y-2.5236
X7.6239Y-3.7033
X7.6244Y-2.6527
X7.6252Y-2.5901
X7.6284Y-2.3317
X7.6315Y-2.6941
X7.6362Y-2.4212
X7.6416Y-2.7981
X7.6442Y-3.2509
X7.6519Y-2.2999
X7.6591Y-2.9851
X7.6677Y-2.6315
X7.673Y-2.8258
X7.6757Y-3.4083
X7.6757Y-3.5028
X7.6757Y-3.5658
X7.6787Y-2.2512
X7.689Y-2.2693
X7.6901Y-2.4933
X7.6929Y-2.5956
X7.6968Y-2.524
X7.7072Y-3.1879
X7.7102Y-2.2502
X7.7145Y-2.5464
X7.7263Y-3.3032
X7.732Y-3.5406
X7.732Y-3.6252
X7.7328Y-3.4382
X7.7359Y-2.3887
X7.7397Y-2.2464
X7.7426Y-2.9966
X7.7597Y-2.3142
X7.763Y-2.597
X7.7681Y-2.8281
X7.7701Y-3.1213
X7.7798Y-2.7754
X7.7799Y-2.246
X7.8115Y-2.9352
X7.8118Y-2.2464
X7.8142Y-2.6468
X7.8154Y-2.4768
X7.8228Y-2.7248
X7.8307Y-2.7614
X7.8405Y-2.2464
X7.8444Y-2.8287
X7.8446Y-3.0371
X7.852Y-2.7929
X7.8701Y-2.2456
X7.8701Y-2.7614
X7.8768Y-2.328
X7.8878Y-2.6761
X7.8879Y-2.5965
X7.8897Y-2.7771
X7.9094Y-2.2456
X7.9094Y-2.7614
X7.9234Y-2.9999
X7.9291Y-2.7771
X7.9449Y-2.2496
X7.9488Y-2.7614
X7.9527Y-2.2732
X7.9629Y-2.6781
X7.9683Y-2.5484
X7.9697Y-2.2898
X7.996Y-2.2929
X7.9981Y-2.4847
X8.015Y-2.5812
X8.0158Y-2.3662
X8.0236Y-2.2929
X8.0299Y-2.837
X8.0454Y-2.6901
X8.0483Y-2.6594
X8.0505Y-2.292
X8.0512Y-2.4937
X8.0512Y-2.5212
X8.0535Y-2.9291
X8.059Y-2.5448
X8.0634Y-2.8298
X8.0669Y-2.474
X8.0748Y-2.6429
X8.0792Y-2.2907
X8.0827Y-2.5527
X8.0933Y-2.8224
X8.0945Y-2.474
X8.1066Y-2.6495
X8.1069Y-2.2853
X8.1102Y-2.5448
X8.1104Y-2.7864
X8.1141Y-2.6921
X8.1142Y-2.4858
X8.1142Y-2.5134
X8.1181Y-2.3086
X8.1201Y-2.3378
X8.1221Y-2.8118
X8.1224Y-2.3661
X8.1244Y-2.3897
X8.126Y-2.4189
X8.126Y-2.4464
X8.1315Y-2.474
X8.1378Y-2.5212
X8.1538Y-2.8012
X8.1594Y-2.987
X8.1638Y-2.7114
X8.1733Y-2.9007
X8.1827Y-2.9377
X8.1838Y-2.7354
X8.2047Y-2.8519
X8.2126Y-2.9031
X8.2177Y-2.7943
X8.2403Y-3.0052
X8.2441Y-2.9208
X8.2716Y-2.8472
X8.3197Y-3.094
X8.333Y-2.772
X8.3402Y-3.012
X8.3673Y-3.1033
X8.3715Y-2.9674
X8.3893Y-2.8268
X8.3917Y-3.076
X8.4137Y-3.1036
X8.4587Y-2.8927
X8.4587Y-2.9318
X8.459Y-2.9723
X8.4611Y-3.0149
X8.4633Y-2.7826
X8.4724Y-2.8634
X8.4725Y-2.9126
X8.4765Y-3.1045
X8.5075Y-2.8933
X8.5075Y-2.9324
X8.5697Y-3.0281
X8.5698Y-2.9726
X8.5703Y-2.8929
X8.5705Y-2.9327
X8.5793Y-3.0738
X8.5808Y-2.7819
X8.6584Y-2.8927
X8.6586Y-2.9327
T2
X7.3744Y-2.7331
X7.4423Y-2.5923
X7.5446Y-2.4804
X8.0851Y-2.9359
X8.1166Y-2.9359
X8.1166Y-2.9674
X8.1166Y-2.9989
X8.1166Y-3.0304
X8.1481Y-2.9674
X8.1481Y-3.0304
X8.1796Y-2.9989
X8.1796Y-3.0304
X8.2111Y-2.9674
X8.2111Y-2.9989
X8.2111Y-3.0304
X8.2111Y-3.0619
X8.2111Y-3.0934
X8.2111Y-3.1249
X8.2426Y-2.9674
X8.2426Y-3.0304
X8.2426Y-3.0619
X8.2426Y-3.0934
X8.27Y-2.7917
X8.2741Y-2.9044
X8.2741Y-2.9359
X8.2741Y-2.9674
X8.2741Y-2.9989
X8.2741Y-3.0304
X8.2741Y-3.0619
X8.2741Y-3.0934
X8.2992Y-2.8153
X8.3056Y-2.8414
X8.4342Y-2.8252
X8.5599Y-2.8634
T3
X7.4289Y-2.4474
X7.4501Y-3.7748
X8.15Y-2.584
X8.1555Y-2.6609
X8.523Y-3.082
X8.5236Y-2.8008
X8.638Y-2.8015
X8.6383Y-3.0823
M30
