%TF.GenerationSoftware,KiCad,Pcbnew,8.0.0-rc1-4-g5bc78f7d9f*%
%TF.CreationDate,2024-02-10T18:12:35-05:00*%
%TF.ProjectId,cafeFlex,63616665-466c-4657-982e-6b696361645f,3*%
%TF.SameCoordinates,Original*%
%TF.FileFunction,Soldermask,Bot*%
%TF.FilePolarity,Negative*%
%FSLAX46Y46*%
G04 Gerber Fmt 4.6, Leading zero omitted, Abs format (unit mm)*
G04 Created by KiCad (PCBNEW 8.0.0-rc1-4-g5bc78f7d9f) date 2024-02-10 18:12:35*
%MOMM*%
%LPD*%
G01*
G04 APERTURE LIST*
%ADD10C,0.255000*%
%ADD11C,0.755000*%
%TA.AperFunction,Profile*%
%ADD12C,0.010000*%
%TD*%
G04 APERTURE END LIST*
D10*
X205489149Y-74571740D02*
G75*
G02*
X205234149Y-74571740I-127500J0D01*
G01*
X205234149Y-74571740D02*
G75*
G02*
X205489149Y-74571740I127500J0D01*
G01*
X208689149Y-77771740D02*
G75*
G02*
X208434149Y-77771740I-127500J0D01*
G01*
X208434149Y-77771740D02*
G75*
G02*
X208689149Y-77771740I127500J0D01*
G01*
X210289149Y-73771740D02*
G75*
G02*
X210034149Y-73771740I-127500J0D01*
G01*
X210034149Y-73771740D02*
G75*
G02*
X210289149Y-73771740I127500J0D01*
G01*
X210289149Y-76171740D02*
G75*
G02*
X210034149Y-76171740I-127500J0D01*
G01*
X210034149Y-76171740D02*
G75*
G02*
X210289149Y-76171740I127500J0D01*
G01*
X208689149Y-76171740D02*
G75*
G02*
X208434149Y-76171740I-127500J0D01*
G01*
X208434149Y-76171740D02*
G75*
G02*
X208689149Y-76171740I127500J0D01*
G01*
X207089149Y-76971740D02*
G75*
G02*
X206834149Y-76971740I-127500J0D01*
G01*
X206834149Y-76971740D02*
G75*
G02*
X207089149Y-76971740I127500J0D01*
G01*
D11*
X219782486Y-71157675D02*
G75*
G02*
X219027486Y-71157675I-377500J0D01*
G01*
X219027486Y-71157675D02*
G75*
G02*
X219782486Y-71157675I377500J0D01*
G01*
D10*
X210927751Y-71508218D02*
G75*
G02*
X210672751Y-71508218I-127500J0D01*
G01*
X210672751Y-71508218D02*
G75*
G02*
X210927751Y-71508218I127500J0D01*
G01*
D11*
X189070917Y-62163701D02*
G75*
G02*
X188315917Y-62163701I-377500J0D01*
G01*
X188315917Y-62163701D02*
G75*
G02*
X189070917Y-62163701I377500J0D01*
G01*
X216860792Y-78281754D02*
G75*
G02*
X216105792Y-78281754I-377500J0D01*
G01*
X216105792Y-78281754D02*
G75*
G02*
X216860792Y-78281754I377500J0D01*
G01*
D10*
X206289149Y-74571740D02*
G75*
G02*
X206034149Y-74571740I-127500J0D01*
G01*
X206034149Y-74571740D02*
G75*
G02*
X206289149Y-74571740I127500J0D01*
G01*
X207889149Y-76171740D02*
G75*
G02*
X207634149Y-76171740I-127500J0D01*
G01*
X207634149Y-76171740D02*
G75*
G02*
X207889149Y-76171740I127500J0D01*
G01*
X210289149Y-78571740D02*
G75*
G02*
X210034149Y-78571740I-127500J0D01*
G01*
X210034149Y-78571740D02*
G75*
G02*
X210289149Y-78571740I127500J0D01*
G01*
X206289149Y-76971740D02*
G75*
G02*
X206034149Y-76971740I-127500J0D01*
G01*
X206034149Y-76971740D02*
G75*
G02*
X206289149Y-76971740I127500J0D01*
G01*
D11*
X219790394Y-78291054D02*
G75*
G02*
X219035394Y-78291054I-377500J0D01*
G01*
X219035394Y-78291054D02*
G75*
G02*
X219790394Y-78291054I377500J0D01*
G01*
D10*
X208689149Y-75371740D02*
G75*
G02*
X208434149Y-75371740I-127500J0D01*
G01*
X208434149Y-75371740D02*
G75*
G02*
X208689149Y-75371740I127500J0D01*
G01*
D11*
X216877050Y-71139183D02*
G75*
G02*
X216122050Y-71139183I-377500J0D01*
G01*
X216122050Y-71139183D02*
G75*
G02*
X216877050Y-71139183I377500J0D01*
G01*
D10*
X210184917Y-70909284D02*
G75*
G02*
X209929917Y-70909284I-127500J0D01*
G01*
X209929917Y-70909284D02*
G75*
G02*
X210184917Y-70909284I127500J0D01*
G01*
D11*
X207528109Y-67586388D02*
G75*
G02*
X206773109Y-67586388I-377500J0D01*
G01*
X206773109Y-67586388D02*
G75*
G02*
X207528109Y-67586388I377500J0D01*
G01*
D10*
X209489149Y-77771740D02*
G75*
G02*
X209234149Y-77771740I-127500J0D01*
G01*
X209234149Y-77771740D02*
G75*
G02*
X209489149Y-77771740I127500J0D01*
G01*
X210289149Y-75371740D02*
G75*
G02*
X210034149Y-75371740I-127500J0D01*
G01*
X210034149Y-75371740D02*
G75*
G02*
X210289149Y-75371740I127500J0D01*
G01*
X209489149Y-78571740D02*
G75*
G02*
X209234149Y-78571740I-127500J0D01*
G01*
X209234149Y-78571740D02*
G75*
G02*
X209489149Y-78571740I127500J0D01*
G01*
X206289149Y-76171740D02*
G75*
G02*
X206034149Y-76171740I-127500J0D01*
G01*
X206034149Y-76171740D02*
G75*
G02*
X206289149Y-76171740I127500J0D01*
G01*
D11*
X207386634Y-65633781D02*
G75*
G02*
X206631634Y-65633781I-377500J0D01*
G01*
X206631634Y-65633781D02*
G75*
G02*
X207386634Y-65633781I377500J0D01*
G01*
D10*
X209489149Y-76971740D02*
G75*
G02*
X209234149Y-76971740I-127500J0D01*
G01*
X209234149Y-76971740D02*
G75*
G02*
X209489149Y-76971740I127500J0D01*
G01*
X210289149Y-77771740D02*
G75*
G02*
X210034149Y-77771740I-127500J0D01*
G01*
X210034149Y-77771740D02*
G75*
G02*
X210289149Y-77771740I127500J0D01*
G01*
X210289149Y-74571740D02*
G75*
G02*
X210034149Y-74571740I-127500J0D01*
G01*
X210034149Y-74571740D02*
G75*
G02*
X210289149Y-74571740I127500J0D01*
G01*
X209489149Y-75371740D02*
G75*
G02*
X209234149Y-75371740I-127500J0D01*
G01*
X209234149Y-75371740D02*
G75*
G02*
X209489149Y-75371740I127500J0D01*
G01*
X208689149Y-78571740D02*
G75*
G02*
X208434149Y-78571740I-127500J0D01*
G01*
X208434149Y-78571740D02*
G75*
G02*
X208689149Y-78571740I127500J0D01*
G01*
X208689149Y-76971740D02*
G75*
G02*
X208434149Y-76971740I-127500J0D01*
G01*
X208434149Y-76971740D02*
G75*
G02*
X208689149Y-76971740I127500J0D01*
G01*
D11*
X189609352Y-95879163D02*
G75*
G02*
X188854352Y-95879163I-377500J0D01*
G01*
X188854352Y-95879163D02*
G75*
G02*
X189609352Y-95879163I377500J0D01*
G01*
D10*
X207089149Y-75371740D02*
G75*
G02*
X206834149Y-75371740I-127500J0D01*
G01*
X206834149Y-75371740D02*
G75*
G02*
X207089149Y-75371740I127500J0D01*
G01*
X211089149Y-72171740D02*
G75*
G02*
X210834149Y-72171740I-127500J0D01*
G01*
X210834149Y-72171740D02*
G75*
G02*
X211089149Y-72171740I127500J0D01*
G01*
X210289149Y-76971740D02*
G75*
G02*
X210034149Y-76971740I-127500J0D01*
G01*
X210034149Y-76971740D02*
G75*
G02*
X210289149Y-76971740I127500J0D01*
G01*
X207889149Y-76971740D02*
G75*
G02*
X207634149Y-76971740I-127500J0D01*
G01*
X207634149Y-76971740D02*
G75*
G02*
X207889149Y-76971740I127500J0D01*
G01*
X208689149Y-79371740D02*
G75*
G02*
X208434149Y-79371740I-127500J0D01*
G01*
X208434149Y-79371740D02*
G75*
G02*
X208689149Y-79371740I127500J0D01*
G01*
X206289149Y-75371740D02*
G75*
G02*
X206034149Y-75371740I-127500J0D01*
G01*
X206034149Y-75371740D02*
G75*
G02*
X206289149Y-75371740I127500J0D01*
G01*
D12*
X208002264Y-79307523D02*
G75*
G02*
X207939804Y-78959627I937236J347823D01*
G01*
X202064585Y-77999201D02*
G75*
G02*
X203474064Y-77418111I1409415J-1418699D01*
G01*
X182589797Y-74103596D02*
X182589797Y-92694033D01*
X211728382Y-69824893D02*
G75*
G02*
X210974324Y-70168108I-754082J656793D01*
G01*
X196839797Y-92217931D02*
G75*
G02*
X195435260Y-94127197I-1999997J31D01*
G01*
X208501386Y-69566249D02*
X207901345Y-68952468D01*
X182589797Y-74103596D02*
G75*
G02*
X183501507Y-69931921I9999503J96D01*
G01*
X197430318Y-82602596D02*
X202064585Y-77999201D01*
X205482345Y-56687886D02*
G75*
G02*
X206477312Y-57603086I-1445J-1000014D01*
G01*
X209033092Y-79447078D02*
G75*
G02*
X208578364Y-79739249I-454792J207878D01*
G01*
X212079991Y-69421196D02*
G75*
G02*
X212457031Y-69249574I377109J-328504D01*
G01*
X215384616Y-70168133D02*
G75*
G02*
X214630506Y-69824917I-16J1000033D01*
G01*
X219398478Y-70168133D02*
G75*
G02*
X220398466Y-71169205I22J-999967D01*
G01*
X207338679Y-67723952D02*
X206477329Y-57603085D01*
X208002264Y-79307523D02*
X208066022Y-79447024D01*
X220390868Y-78269243D02*
X220398477Y-71169205D01*
X183053355Y-93974402D02*
G75*
G02*
X182589818Y-92694033I1536345J1280302D01*
G01*
X209033092Y-79447078D02*
X209367274Y-79291822D01*
X205482345Y-56687886D02*
X191513697Y-56668133D01*
X207901345Y-68952468D02*
G75*
G02*
X207338716Y-67723949I1430155J1398068D01*
G01*
X185558172Y-96418133D02*
G75*
G02*
X184789927Y-96058337I-72J999933D01*
G01*
X209367274Y-79291823D02*
G75*
G02*
X209472598Y-79268557I105326J-226777D01*
G01*
X219398478Y-70168133D02*
X215384616Y-70168133D01*
X214630524Y-69824902D02*
X214278925Y-69421202D01*
X210974324Y-70168110D02*
X209931516Y-70168133D01*
X212079991Y-69421196D02*
X211728382Y-69824893D01*
X188787208Y-58416630D02*
X183501502Y-69931919D01*
X196839797Y-84021528D02*
G75*
G02*
X197430303Y-82602581I2000003J28D01*
G01*
X220390867Y-78269243D02*
G75*
G02*
X219390906Y-79268168I-999967J1043D01*
G01*
X206187819Y-77668133D02*
G75*
G02*
X205415935Y-77608194I-19J4999833D01*
G01*
X185558172Y-96418133D02*
X187328188Y-96418133D01*
X208520777Y-79739183D02*
G75*
G02*
X208065997Y-79447035I23J500083D01*
G01*
X208520777Y-79739183D02*
X208578364Y-79739183D01*
X213901879Y-69249587D02*
G75*
G02*
X214278940Y-69421189I21J-500013D01*
G01*
X206187819Y-77668133D02*
X207439797Y-77668133D01*
X188787208Y-58416630D02*
G75*
G02*
X191513697Y-56668111I2726492J-1251470D01*
G01*
X183053355Y-93974402D02*
X184789951Y-96058317D01*
X207939797Y-78168133D02*
X207939797Y-78959627D01*
X188816869Y-96191378D02*
G75*
G02*
X187328188Y-96418132I-1488669J4773278D01*
G01*
X209931516Y-70168133D02*
G75*
G02*
X208501371Y-69566264I-16J2000033D01*
G01*
X204352996Y-77442109D02*
X205415935Y-77608193D01*
X212457031Y-69249587D02*
X213901879Y-69249587D01*
X203474064Y-77418133D02*
X204044242Y-77418133D01*
X196839797Y-92217931D02*
X196839797Y-84021528D01*
X209472598Y-79268548D02*
X219390906Y-79268171D01*
X207439797Y-77668133D02*
G75*
G02*
X207939767Y-78168133I3J-499967D01*
G01*
X204044242Y-77418133D02*
G75*
G02*
X204352995Y-77442116I-42J-1999967D01*
G01*
X188816867Y-96191375D02*
X195435269Y-94127227D01*
M02*
