%TF.GenerationSoftware,KiCad,Pcbnew,8.0.0-rc1-4-g5bc78f7d9f*%
%TF.CreationDate,2024-02-10T18:12:35-05:00*%
%TF.ProjectId,cafeFlex,63616665-466c-4657-982e-6b696361645f,3*%
%TF.SameCoordinates,Original*%
%TF.FileFunction,Soldermask,Top*%
%TF.FilePolarity,Negative*%
%FSLAX46Y46*%
G04 Gerber Fmt 4.6, Leading zero omitted, Abs format (unit mm)*
G04 Created by KiCad (PCBNEW 8.0.0-rc1-4-g5bc78f7d9f) date 2024-02-10 18:12:35*
%MOMM*%
%LPD*%
G01*
G04 APERTURE LIST*
G04 Aperture macros list*
%AMRoundRect*
0 Rectangle with rounded corners*
0 $1 Rounding radius*
0 $2 $3 $4 $5 $6 $7 $8 $9 X,Y pos of 4 corners*
0 Add a 4 corners polygon primitive as box body*
4,1,4,$2,$3,$4,$5,$6,$7,$8,$9,$2,$3,0*
0 Add four circle primitives for the rounded corners*
1,1,$1+$1,$2,$3*
1,1,$1+$1,$4,$5*
1,1,$1+$1,$6,$7*
1,1,$1+$1,$8,$9*
0 Add four rect primitives between the rounded corners*
20,1,$1+$1,$2,$3,$4,$5,0*
20,1,$1+$1,$4,$5,$6,$7,0*
20,1,$1+$1,$6,$7,$8,$9,0*
20,1,$1+$1,$8,$9,$2,$3,0*%
G04 Aperture macros list end*
%ADD10C,0.255000*%
%ADD11C,0.755000*%
%ADD12RoundRect,0.225000X0.225000X0.250000X-0.225000X0.250000X-0.225000X-0.250000X0.225000X-0.250000X0*%
%ADD13RoundRect,0.375000X-0.498347X-0.181384X0.181384X-0.498347X0.498347X0.181384X-0.181384X0.498347X0*%
%ADD14RoundRect,0.175000X0.375000X-0.175000X0.375000X0.175000X-0.375000X0.175000X-0.375000X-0.175000X0*%
%ADD15RoundRect,0.225000X0.240000X-0.225000X0.240000X0.225000X-0.240000X0.225000X-0.240000X-0.225000X0*%
%ADD16RoundRect,0.195000X0.195000X0.330000X-0.195000X0.330000X-0.195000X-0.330000X0.195000X-0.330000X0*%
%ADD17RoundRect,0.175000X1.490000X-0.175000X1.490000X0.175000X-1.490000X0.175000X-1.490000X-0.175000X0*%
%ADD18RoundRect,0.215000X1.185000X-0.215000X1.185000X0.215000X-1.185000X0.215000X-1.185000X-0.215000X0*%
%ADD19RoundRect,0.285000X0.630000X-0.285000X0.630000X0.285000X-0.630000X0.285000X-0.630000X-0.285000X0*%
%ADD20RoundRect,0.135000X0.185000X-0.135000X0.185000X0.135000X-0.185000X0.135000X-0.185000X-0.135000X0*%
%ADD21RoundRect,0.075000X0.075000X-0.712500X0.075000X0.712500X-0.075000X0.712500X-0.075000X-0.712500X0*%
%ADD22RoundRect,0.140000X-0.140000X-0.170000X0.140000X-0.170000X0.140000X0.170000X-0.140000X0.170000X0*%
%ADD23RoundRect,0.200000X-0.550000X-0.200000X0.550000X-0.200000X0.550000X0.200000X-0.550000X0.200000X0*%
%ADD24RoundRect,0.075000X-0.750000X-0.075000X0.750000X-0.075000X0.750000X0.075000X-0.750000X0.075000X0*%
%TA.AperFunction,Profile*%
%ADD25C,0.010000*%
%TD*%
G04 APERTURE END LIST*
D10*
X211089149Y-72171740D02*
G75*
G02*
X210834149Y-72171740I-127500J0D01*
G01*
X210834149Y-72171740D02*
G75*
G02*
X211089149Y-72171740I127500J0D01*
G01*
X209489149Y-76971740D02*
G75*
G02*
X209234149Y-76971740I-127500J0D01*
G01*
X209234149Y-76971740D02*
G75*
G02*
X209489149Y-76971740I127500J0D01*
G01*
X210289149Y-78571740D02*
G75*
G02*
X210034149Y-78571740I-127500J0D01*
G01*
X210034149Y-78571740D02*
G75*
G02*
X210289149Y-78571740I127500J0D01*
G01*
D11*
X207386634Y-65633781D02*
G75*
G02*
X206631634Y-65633781I-377500J0D01*
G01*
X206631634Y-65633781D02*
G75*
G02*
X207386634Y-65633781I377500J0D01*
G01*
D10*
X208689149Y-76971740D02*
G75*
G02*
X208434149Y-76971740I-127500J0D01*
G01*
X208434149Y-76971740D02*
G75*
G02*
X208689149Y-76971740I127500J0D01*
G01*
X210184917Y-70909284D02*
G75*
G02*
X209929917Y-70909284I-127500J0D01*
G01*
X209929917Y-70909284D02*
G75*
G02*
X210184917Y-70909284I127500J0D01*
G01*
X210289149Y-73771740D02*
G75*
G02*
X210034149Y-73771740I-127500J0D01*
G01*
X210034149Y-73771740D02*
G75*
G02*
X210289149Y-73771740I127500J0D01*
G01*
X210289149Y-77771740D02*
G75*
G02*
X210034149Y-77771740I-127500J0D01*
G01*
X210034149Y-77771740D02*
G75*
G02*
X210289149Y-77771740I127500J0D01*
G01*
D11*
X189070917Y-62163701D02*
G75*
G02*
X188315917Y-62163701I-377500J0D01*
G01*
X188315917Y-62163701D02*
G75*
G02*
X189070917Y-62163701I377500J0D01*
G01*
D10*
X207889149Y-76971740D02*
G75*
G02*
X207634149Y-76971740I-127500J0D01*
G01*
X207634149Y-76971740D02*
G75*
G02*
X207889149Y-76971740I127500J0D01*
G01*
D11*
X216860792Y-78281754D02*
G75*
G02*
X216105792Y-78281754I-377500J0D01*
G01*
X216105792Y-78281754D02*
G75*
G02*
X216860792Y-78281754I377500J0D01*
G01*
X219782486Y-71157675D02*
G75*
G02*
X219027486Y-71157675I-377500J0D01*
G01*
X219027486Y-71157675D02*
G75*
G02*
X219782486Y-71157675I377500J0D01*
G01*
D10*
X210289149Y-75371740D02*
G75*
G02*
X210034149Y-75371740I-127500J0D01*
G01*
X210034149Y-75371740D02*
G75*
G02*
X210289149Y-75371740I127500J0D01*
G01*
X208689149Y-77771740D02*
G75*
G02*
X208434149Y-77771740I-127500J0D01*
G01*
X208434149Y-77771740D02*
G75*
G02*
X208689149Y-77771740I127500J0D01*
G01*
X210289149Y-76971740D02*
G75*
G02*
X210034149Y-76971740I-127500J0D01*
G01*
X210034149Y-76971740D02*
G75*
G02*
X210289149Y-76971740I127500J0D01*
G01*
X207089149Y-75371740D02*
G75*
G02*
X206834149Y-75371740I-127500J0D01*
G01*
X206834149Y-75371740D02*
G75*
G02*
X207089149Y-75371740I127500J0D01*
G01*
X205489149Y-74571740D02*
G75*
G02*
X205234149Y-74571740I-127500J0D01*
G01*
X205234149Y-74571740D02*
G75*
G02*
X205489149Y-74571740I127500J0D01*
G01*
X208689149Y-76171740D02*
G75*
G02*
X208434149Y-76171740I-127500J0D01*
G01*
X208434149Y-76171740D02*
G75*
G02*
X208689149Y-76171740I127500J0D01*
G01*
X210289149Y-74571740D02*
G75*
G02*
X210034149Y-74571740I-127500J0D01*
G01*
X210034149Y-74571740D02*
G75*
G02*
X210289149Y-74571740I127500J0D01*
G01*
X206289149Y-76171740D02*
G75*
G02*
X206034149Y-76171740I-127500J0D01*
G01*
X206034149Y-76171740D02*
G75*
G02*
X206289149Y-76171740I127500J0D01*
G01*
X208689149Y-79371740D02*
G75*
G02*
X208434149Y-79371740I-127500J0D01*
G01*
X208434149Y-79371740D02*
G75*
G02*
X208689149Y-79371740I127500J0D01*
G01*
X210289149Y-76171740D02*
G75*
G02*
X210034149Y-76171740I-127500J0D01*
G01*
X210034149Y-76171740D02*
G75*
G02*
X210289149Y-76171740I127500J0D01*
G01*
D11*
X219790394Y-78291054D02*
G75*
G02*
X219035394Y-78291054I-377500J0D01*
G01*
X219035394Y-78291054D02*
G75*
G02*
X219790394Y-78291054I377500J0D01*
G01*
X216877050Y-71139183D02*
G75*
G02*
X216122050Y-71139183I-377500J0D01*
G01*
X216122050Y-71139183D02*
G75*
G02*
X216877050Y-71139183I377500J0D01*
G01*
D10*
X208689149Y-75371740D02*
G75*
G02*
X208434149Y-75371740I-127500J0D01*
G01*
X208434149Y-75371740D02*
G75*
G02*
X208689149Y-75371740I127500J0D01*
G01*
D11*
X207528109Y-67586388D02*
G75*
G02*
X206773109Y-67586388I-377500J0D01*
G01*
X206773109Y-67586388D02*
G75*
G02*
X207528109Y-67586388I377500J0D01*
G01*
X189609352Y-95879163D02*
G75*
G02*
X188854352Y-95879163I-377500J0D01*
G01*
X188854352Y-95879163D02*
G75*
G02*
X189609352Y-95879163I377500J0D01*
G01*
D10*
X206289149Y-76971740D02*
G75*
G02*
X206034149Y-76971740I-127500J0D01*
G01*
X206034149Y-76971740D02*
G75*
G02*
X206289149Y-76971740I127500J0D01*
G01*
X207089149Y-76971740D02*
G75*
G02*
X206834149Y-76971740I-127500J0D01*
G01*
X206834149Y-76971740D02*
G75*
G02*
X207089149Y-76971740I127500J0D01*
G01*
X210927751Y-71508218D02*
G75*
G02*
X210672751Y-71508218I-127500J0D01*
G01*
X210672751Y-71508218D02*
G75*
G02*
X210927751Y-71508218I127500J0D01*
G01*
X209489149Y-75371740D02*
G75*
G02*
X209234149Y-75371740I-127500J0D01*
G01*
X209234149Y-75371740D02*
G75*
G02*
X209489149Y-75371740I127500J0D01*
G01*
X209489149Y-77771740D02*
G75*
G02*
X209234149Y-77771740I-127500J0D01*
G01*
X209234149Y-77771740D02*
G75*
G02*
X209489149Y-77771740I127500J0D01*
G01*
X208689149Y-78571740D02*
G75*
G02*
X208434149Y-78571740I-127500J0D01*
G01*
X208434149Y-78571740D02*
G75*
G02*
X208689149Y-78571740I127500J0D01*
G01*
X207889149Y-76171740D02*
G75*
G02*
X207634149Y-76171740I-127500J0D01*
G01*
X207634149Y-76171740D02*
G75*
G02*
X207889149Y-76171740I127500J0D01*
G01*
X206289149Y-74571740D02*
G75*
G02*
X206034149Y-74571740I-127500J0D01*
G01*
X206034149Y-74571740D02*
G75*
G02*
X206289149Y-74571740I127500J0D01*
G01*
X206289149Y-75371740D02*
G75*
G02*
X206034149Y-75371740I-127500J0D01*
G01*
X206034149Y-75371740D02*
G75*
G02*
X206289149Y-75371740I127500J0D01*
G01*
X209489149Y-78571740D02*
G75*
G02*
X209234149Y-78571740I-127500J0D01*
G01*
X209234149Y-78571740D02*
G75*
G02*
X209489149Y-78571740I127500J0D01*
G01*
D12*
X187322099Y-71387557D03*
X185772099Y-71387557D03*
D13*
X187295000Y-65055000D03*
D14*
X192780247Y-66298950D03*
X192780247Y-65198950D03*
X192780247Y-64098950D03*
X192780247Y-62998950D03*
X192780247Y-61898950D03*
X192780247Y-60798950D03*
X192780247Y-59698950D03*
X192780247Y-58598950D03*
D15*
X205245247Y-68088950D03*
D16*
X205320247Y-63823950D03*
D17*
X204045247Y-57438950D03*
D18*
X193280247Y-57518950D03*
D19*
X192795247Y-70178950D03*
D17*
X204045247Y-70398950D03*
D20*
X186243980Y-95643583D03*
X186243980Y-94623583D03*
D13*
X186025000Y-67705000D03*
D21*
X184095247Y-92541450D03*
X184595247Y-92541450D03*
X185095247Y-92541450D03*
X185595247Y-92541450D03*
X186095247Y-92541450D03*
X186595247Y-92541450D03*
X187095247Y-92541450D03*
X187595247Y-92541450D03*
X188095247Y-92541450D03*
X188595247Y-92541450D03*
X189095247Y-92541450D03*
X189595247Y-92541450D03*
X190095247Y-92541450D03*
X190595247Y-92541450D03*
X191095247Y-92541450D03*
X191595247Y-92541450D03*
X192095247Y-92541450D03*
X192595247Y-92541450D03*
X193095247Y-92541450D03*
X193595247Y-92541450D03*
X194095247Y-92541450D03*
X194595247Y-92541450D03*
X195095247Y-92541450D03*
X195595247Y-92541450D03*
X195595247Y-73166450D03*
X195095247Y-73166450D03*
X194595247Y-73166450D03*
X194095247Y-73166450D03*
X193595247Y-73166450D03*
X193095247Y-73166450D03*
X192595247Y-73166450D03*
X192095247Y-73166450D03*
X191595247Y-73166450D03*
X191095247Y-73166450D03*
X190595247Y-73166450D03*
X190095247Y-73166450D03*
X189595247Y-73166450D03*
X189095247Y-73166450D03*
X188595247Y-73166450D03*
X188095247Y-73166450D03*
X187595247Y-73166450D03*
X187095247Y-73166450D03*
X186595247Y-73166450D03*
X186095247Y-73166450D03*
X185595247Y-73166450D03*
X185095247Y-73166450D03*
X184595247Y-73166450D03*
X184095247Y-73166450D03*
D22*
X189345247Y-94263950D03*
X190305247Y-94263950D03*
D20*
X187433980Y-95643583D03*
X187433980Y-94623583D03*
D22*
X189345247Y-71633950D03*
X190305247Y-71633950D03*
D23*
X213175000Y-69875000D03*
D24*
X213725000Y-76980000D03*
X213725000Y-76480000D03*
X213725000Y-75980000D03*
X213725000Y-75480000D03*
X213725000Y-74980000D03*
X213725000Y-74480000D03*
X213725000Y-73980000D03*
X213725000Y-73480000D03*
X213725000Y-72980000D03*
X213725000Y-72480000D03*
X218825000Y-72480000D03*
X218825000Y-72980000D03*
X218825000Y-73480000D03*
X218825000Y-73980000D03*
X218825000Y-74480000D03*
X218825000Y-74980000D03*
X218825000Y-75480000D03*
X218825000Y-75980000D03*
X218825000Y-76480000D03*
X218825000Y-76980000D03*
D25*
X208002264Y-79307523D02*
G75*
G02*
X207939804Y-78959627I937236J347823D01*
G01*
X202064585Y-77999201D02*
G75*
G02*
X203474064Y-77418111I1409415J-1418699D01*
G01*
X182589797Y-74103596D02*
X182589797Y-92694033D01*
X211728382Y-69824893D02*
G75*
G02*
X210974324Y-70168108I-754082J656793D01*
G01*
X196839797Y-92217931D02*
G75*
G02*
X195435260Y-94127197I-1999997J31D01*
G01*
X208501386Y-69566249D02*
X207901345Y-68952468D01*
X182589797Y-74103596D02*
G75*
G02*
X183501507Y-69931921I9999503J96D01*
G01*
X197430318Y-82602596D02*
X202064585Y-77999201D01*
X205482345Y-56687886D02*
G75*
G02*
X206477312Y-57603086I-1445J-1000014D01*
G01*
X209033092Y-79447078D02*
G75*
G02*
X208578364Y-79739249I-454792J207878D01*
G01*
X212079991Y-69421196D02*
G75*
G02*
X212457031Y-69249574I377109J-328504D01*
G01*
X215384616Y-70168133D02*
G75*
G02*
X214630506Y-69824917I-16J1000033D01*
G01*
X219398478Y-70168133D02*
G75*
G02*
X220398466Y-71169205I22J-999967D01*
G01*
X207338679Y-67723952D02*
X206477329Y-57603085D01*
X208002264Y-79307523D02*
X208066022Y-79447024D01*
X220390868Y-78269243D02*
X220398477Y-71169205D01*
X183053355Y-93974402D02*
G75*
G02*
X182589818Y-92694033I1536345J1280302D01*
G01*
X209033092Y-79447078D02*
X209367274Y-79291822D01*
X205482345Y-56687886D02*
X191513697Y-56668133D01*
X207901345Y-68952468D02*
G75*
G02*
X207338716Y-67723949I1430155J1398068D01*
G01*
X185558172Y-96418133D02*
G75*
G02*
X184789927Y-96058337I-72J999933D01*
G01*
X209367274Y-79291823D02*
G75*
G02*
X209472598Y-79268557I105326J-226777D01*
G01*
X219398478Y-70168133D02*
X215384616Y-70168133D01*
X214630524Y-69824902D02*
X214278925Y-69421202D01*
X210974324Y-70168110D02*
X209931516Y-70168133D01*
X212079991Y-69421196D02*
X211728382Y-69824893D01*
X188787208Y-58416630D02*
X183501502Y-69931919D01*
X196839797Y-84021528D02*
G75*
G02*
X197430303Y-82602581I2000003J28D01*
G01*
X220390867Y-78269243D02*
G75*
G02*
X219390906Y-79268168I-999967J1043D01*
G01*
X206187819Y-77668133D02*
G75*
G02*
X205415935Y-77608194I-19J4999833D01*
G01*
X185558172Y-96418133D02*
X187328188Y-96418133D01*
X208520777Y-79739183D02*
G75*
G02*
X208065997Y-79447035I23J500083D01*
G01*
X208520777Y-79739183D02*
X208578364Y-79739183D01*
X213901879Y-69249587D02*
G75*
G02*
X214278940Y-69421189I21J-500013D01*
G01*
X206187819Y-77668133D02*
X207439797Y-77668133D01*
X188787208Y-58416630D02*
G75*
G02*
X191513697Y-56668111I2726492J-1251470D01*
G01*
X183053355Y-93974402D02*
X184789951Y-96058317D01*
X207939797Y-78168133D02*
X207939797Y-78959627D01*
X188816869Y-96191378D02*
G75*
G02*
X187328188Y-96418132I-1488669J4773278D01*
G01*
X209931516Y-70168133D02*
G75*
G02*
X208501371Y-69566264I-16J2000033D01*
G01*
X204352996Y-77442109D02*
X205415935Y-77608193D01*
X212457031Y-69249587D02*
X213901879Y-69249587D01*
X203474064Y-77418133D02*
X204044242Y-77418133D01*
X196839797Y-92217931D02*
X196839797Y-84021528D01*
X209472598Y-79268548D02*
X219390906Y-79268171D01*
X207439797Y-77668133D02*
G75*
G02*
X207939767Y-78168133I3J-499967D01*
G01*
X204044242Y-77418133D02*
G75*
G02*
X204352995Y-77442116I-42J-1999967D01*
G01*
X188816867Y-96191375D02*
X195435269Y-94127227D01*
M02*
